G04 ================== begin FILE IDENTIFICATION RECORD ==================*
G04 Layout Name:  K:/OrCAD/Design/ENG5220/allegro/beeSafe_1V0.brd*
G04 Film Name:    BOTTOM*
G04 File Format:  Gerber RS274X*
G04 File Origin:  Cadence Allegro 17.2-S055*
G04 Origin Date:  Sat Feb 22 14:56:32 2020*
G04 *
G04 Layer:  ETCH/BOTTOM*
G04 Layer:  PIN/BOTTOM*
G04 Layer:  VIA CLASS/BOTTOM*
G04 *
G04 Offset:    (0.00 0.00)*
G04 Mirror:    No*
G04 Mode:      Positive*
G04 Rotation:  0*
G04 FullContactRelief:  No*
G04 UndefLineWidth:     0.00*
G04 ================== end FILE IDENTIFICATION RECORD ====================*
%FSLAX25Y25*MOIN*%
%IR0*IPPOS*OFA0.00000B0.00000*MIA0B0*SFA1.00000B1.00000*%
%ADD11C,.06*%
%ADD10C,.08*%
%ADD14R,.08X.08*%
%ADD13C,.08583*%
%ADD12C,.09843*%
%ADD15C,.025*%
%ADD18C,.12004*%
%ADD16C,.14004*%
%ADD17C,.18846*%
G75*
%LPD*%
G75*
G36*
G01X-178999Y89999D02*
X163999D01*
Y-140999D01*
X-178999D01*
Y89999D01*
G37*
%LPC*%
G75*
G36*
G01X8140Y-103363D02*
G03X8587Y-102810I81J392D01*
G02X7998Y-100000I6413J2811D01*
G02X22002I7002J0D01*
G02X19890Y-105012I-7003J0D01*
G03X19967Y-105644I279J-287D01*
G02X20278Y-105836I-3521J-6052D01*
G02X26441Y-103191I6163J-5858D01*
G02X31441Y-104817I0J-8502D01*
G02X36441Y-103191I5000J-6876D01*
G02X41441Y-104817I0J-8502D01*
G02X46441Y-103191I5000J-6876D01*
G02X51441Y-104817I0J-8502D01*
G02X56441Y-103191I5000J-6876D01*
G02X61441Y-104817I0J-8502D01*
G02X66441Y-103191I5000J-6876D01*
G02X71441Y-104817I0J-8502D01*
G02X76441Y-103191I5000J-6876D01*
G02X81441Y-104817I0J-8502D01*
G02X86441Y-103191I5000J-6876D01*
G02X92604Y-105836I0J-8503D01*
G02X100278I3837J-5857D01*
G02X106441Y-103191I6163J-5858D01*
G02X111441Y-104817I0J-8502D01*
G02X116441Y-103191I5000J-6876D01*
G02X121441Y-104817I0J-8502D01*
G02X126441Y-103191I5000J-6876D01*
G02X129945Y-103947I-1J-8502D01*
G02X132441Y-103192I2495J-3746D01*
G01X140441D01*
G02X144942Y-107693I0J-4501D01*
G01Y-108167D01*
G03X145541Y-108514I400J0D01*
G02X150220Y-107270I4679J-8179D01*
G02Y-126116I0J-9423D01*
G02X144983Y-124527I0J9423D01*
G03X144387Y-124717I-222J-332D01*
G02X136441Y-130195I-7946J3024D01*
G02X131441Y-128569I0J8502D01*
G02X126441Y-130195I-5000J6876D01*
G02X123546Y-129687I0J8503D01*
G03X123033Y-130198I-137J-376D01*
G02X123443Y-132559I-6593J-2361D01*
G02X109439I-7002J0D01*
G02X109849Y-130198I7003J0D01*
G03X109336Y-129687I-376J135D01*
G02X106441Y-130195I-2895J7995D01*
G02X101441Y-128569I0J8502D01*
G02X96441Y-130195I-5000J6876D01*
G02X91441Y-128569I0J8502D01*
G02X86441Y-130195I-5000J6876D01*
G02X80278Y-127550I0J8503D01*
G02X72604I-3837J5857D01*
G02X66441Y-130195I-6163J5858D01*
G02X61441Y-128569I0J8502D01*
G02X56441Y-130195I-5000J6876D01*
G02X50278Y-127550I0J8503D01*
G02X46441Y-128695I-3837J5857D01*
G02X42582Y-127536I-1J7002D01*
G01X42532Y-127502D01*
X40350D01*
X40300Y-127536D01*
G02X36441Y-128695I-3858J5843D01*
G02X32604Y-127550I0J7002D01*
G02X26441Y-130195I-6163J5858D01*
G02X21441Y-128569I0J8502D01*
G02X16441Y-130195I-5000J6876D01*
G02X11441Y-128569I0J8502D01*
G02X6441Y-130195I-5000J6876D01*
G02X278Y-127550I0J8503D01*
G02X-7396I-3837J5857D01*
G02X-19722I-6163J5858D01*
G02X-27396I-3837J5857D01*
G02X-33559Y-130195I-6163J5858D01*
G02X-38559Y-128569I0J8502D01*
G02X-43559Y-130195I-5000J6876D01*
G02X-48559Y-128569I0J8502D01*
G02X-53559Y-130195I-5000J6876D01*
G02X-62061Y-121693I0J8502D01*
G02X-59416Y-115530I8503J0D01*
G02X-60561Y-111693I5857J3837D01*
G02X-53559Y-104691I7002J0D01*
G02X-49722Y-105836I0J-7002D01*
G02X-43559Y-103191I6163J-5858D01*
G02X-38559Y-104817I0J-8502D01*
G02X-33559Y-103191I5000J-6876D01*
G02X-28559Y-104817I0J-8502D01*
G02X-23559Y-103191I5000J-6876D01*
G02X-18559Y-104817I0J-8502D01*
G02X-13559Y-103191I5000J-6876D01*
G02X-8559Y-104817I0J-8502D01*
G02X-3559Y-103191I5000J-6876D01*
G02X1441Y-104817I0J-8502D01*
G02X6441Y-103191I5000J-6876D01*
G02X8140Y-103363I-2J-8502D01*
G37*
G36*
G01X-126809Y-12792D02*
G03Y-12208I-273J292D01*
G02X-129502Y-6000I5809J6208D01*
G02X-112498I8502J0D01*
G02X-112636Y-7523I-8502J3D01*
G01X-112654Y-7626D01*
X-107862Y-12418D01*
G03X-107278Y-12398I283J283D01*
G02X-102000Y-9998I5277J-4602D01*
G02X-94998Y-17000I0J-7002D01*
G02X-101378Y-23974I-7002J0D01*
G03X-101625Y-24655I36J-398D01*
G01X-96640Y-29640D01*
G02X-95249Y-32949I-3360J-3359D01*
G02X-91498Y-40000I-4752J-7051D01*
G02X-108502I-8502J0D01*
G02X-106013Y-33989I8503J0D01*
G01X-105872Y-33848D01*
X-108566Y-31154D01*
G03X-109248Y-31437I-282J-283D01*
G01Y-50195D01*
G02X-106498Y-56000I-4752J-5805D01*
G02X-121502I-7502J0D01*
G02X-118752Y-50195I7502J0D01*
G01Y-27968D01*
X-119374Y-27346D01*
X-119477Y-27364D01*
G02X-121000Y-27502I-1526J8364D01*
G02X-129502Y-19000I0J8502D01*
G02X-126809Y-12792I8502J0D01*
G37*
G36*
G01X-33968Y33248D02*
X-56950D01*
G02Y42752I-7050J4752D01*
G01X-32000D01*
G02X-28640Y41360I0J-4751D01*
G01X-3626Y16346D01*
X-3523Y16364D01*
G02X-2000Y16502I1526J-8364D01*
G02X-10502Y8000I0J-8502D01*
G02X-10364Y9523I8502J-3D01*
G01X-10346Y9626D01*
X-33968Y33248D01*
G37*
G36*
G01X-34715Y75491D02*
G03X-34215Y75935I104J386D01*
G02X-34293Y77000I7215J1064D01*
G02X-27000Y69707I7293J0D01*
G02X-28065Y69785I-1J7293D01*
G03X-28509Y69285I-58J-396D01*
G02X-28207Y67000I-8491J-2285D01*
G02X-28509Y64715I-8793J0D01*
G03X-28065Y64215I386J-104D01*
G02X-27000Y64293I1064J-7215D01*
G02X-34293Y57000I0J-7293D01*
G02X-34215Y58065I7293J1D01*
G03X-34715Y58509I-396J58D01*
G02X-37000Y58207I-2285J8491D01*
G02X-39285Y58509I0J8793D01*
G03X-39785Y58065I-104J-386D01*
G02X-39707Y57000I-7215J-1064D01*
G02X-47000Y64293I-7293J0D01*
G02X-45935Y64215I1J-7293D01*
G03X-45491Y64715I58J396D01*
G02X-45793Y67000I8491J2285D01*
G02X-45491Y69285I8793J0D01*
G03X-45935Y69785I-386J104D01*
G02X-47000Y69707I-1064J7215D01*
G02X-39707Y77000I0J7293D01*
G02X-39785Y75935I-7293J-1D01*
G03X-39285Y75491I396J-58D01*
G02X-37000Y75793I2285J-8491D01*
G02X-34715Y75491I0J-8793D01*
G37*
G54D18*
X-77362Y-78362D03*
G54D16*
X28000Y-42000D03*
X-105000Y-91000D03*
X8000Y50000D03*
X-150000Y-93000D03*
X33000Y-71000D03*
X-154000D03*
X-28346Y-87000D03*
X-7000Y-14000D03*
X-155909Y-29091D03*
X-96000Y-119000D03*
X126000Y-87000D03*
G54D17*
X-78126Y76220D03*
Y-116693D03*
X150220Y76220D03*
%LPD*%
G75*
G54D10*
X-155909Y-29091D03*
X-150000Y-93000D03*
X-154000Y-71000D03*
X-96000Y-119000D03*
X-105000Y-91000D03*
X-100000Y-40000D03*
X-121000Y-19000D03*
Y-6000D03*
X-102000Y-17000D03*
X-53559Y-121693D03*
X-43559D03*
X-53559Y-111693D03*
X-43559D03*
X-64000Y38000D03*
X-33559Y-121693D03*
X-23559D03*
X-13559D03*
X-33559Y-111693D03*
X-23559D03*
X-13559D03*
X-28346Y-87000D03*
X-7000Y-14000D03*
X-3559Y-121693D03*
X6441D03*
X16441D03*
X-3559Y-111693D03*
X6441D03*
X16441D03*
X15000Y-100000D03*
X-2000Y8000D03*
X8000Y50000D03*
X26441Y-121693D03*
X36441D03*
X46441D03*
X26441Y-111693D03*
X36441D03*
X46441D03*
X33000Y-71000D03*
X28000Y-42000D03*
X56441Y-121693D03*
X66441D03*
X76441D03*
X56441Y-111693D03*
X66441D03*
X76441D03*
X86441Y-121693D03*
X96441D03*
X106441D03*
X86441Y-111693D03*
X96441D03*
X106441D03*
X116441Y-121693D03*
X126441D03*
X136441D03*
X116441Y-132559D03*
Y-111693D03*
X126441D03*
X126000Y-87000D03*
G54D11*
X-114000Y-56000D03*
X-77362Y-78362D03*
G54D12*
X-78126Y-116693D03*
Y76220D03*
X150220Y-116693D03*
Y76220D03*
G54D13*
X-47000Y57000D03*
Y77000D03*
X-37000Y67000D03*
X-27000Y57000D03*
Y77000D03*
G54D14*
X136441Y-111693D03*
G54D15*
G01X-159293Y-76293D02*
X-154000Y-71000D01*
G01X-159293Y-65707D02*
X-154000Y-71000D01*
G01X-161202Y-34384D02*
X-155909Y-29091D01*
G01X-161202Y-23798D02*
X-155909Y-29091D01*
G01X-155293Y-98293D02*
X-150000Y-93000D01*
G01D02*
X-144707Y-98293D01*
G01X-150000Y-93000D02*
X-144707Y-87707D01*
G01X-155293D02*
X-150000Y-93000D01*
G01X-154000Y-71000D02*
X-148707Y-65707D01*
G01X-154000Y-71000D02*
X-148707Y-76293D01*
G01X-155909Y-29091D02*
X-150616Y-34384D01*
G01X-155909Y-29091D02*
X-150616Y-23798D01*
G01X-101293Y-124293D02*
X-96000Y-119000D01*
G01X-110293Y-96293D02*
X-105000Y-91000D01*
G01D02*
X-99707Y-96293D01*
G01X-101293Y-113707D02*
X-96000Y-119000D01*
G01X-105000Y-91000D02*
X-99707Y-85707D01*
G01X-110293D02*
X-105000Y-91000D01*
G01X-114000Y-56000D02*
Y-26000D01*
X-121000Y-19000D01*
G01X-100000Y-40000D02*
Y-33000D01*
X-111000Y-22000D01*
Y-16000D01*
X-121000Y-6000D01*
G01X-102000Y-17000D02*
X-96707Y-11707D01*
G01X-107293D02*
X-102000Y-17000D01*
G01D02*
X-96707Y-22293D01*
G01X-96000Y-119000D02*
X-90707Y-124293D01*
G01X-96000Y-119000D02*
X-90707Y-113707D01*
G01X-81947Y-82947D02*
X-77362Y-78362D01*
G01D02*
X-72777Y-73777D01*
G01X-81947D02*
X-77362Y-78362D01*
G01D02*
X-72777Y-82947D01*
G01X-2000Y8000D02*
X-32000Y38000D01*
X-64000D01*
G01X-47000Y49506D02*
Y57000D01*
G01Y69506D02*
Y77000D01*
G01D02*
Y84494D01*
G01X-54494Y77000D02*
X-47000D01*
G01D02*
X-39506D01*
G01X-47000Y57000D02*
Y64494D01*
G01X-54494Y57000D02*
X-47000D01*
G01D02*
X-39506D01*
G01X-33639Y-92293D02*
X-28346Y-87000D01*
G01D02*
X-23053Y-81707D01*
G01X-33639D02*
X-28346Y-87000D01*
G01D02*
X-23053Y-92293D01*
G01X-12293Y-19293D02*
X-7000Y-14000D01*
G01X-12293Y-8707D02*
X-7000Y-14000D01*
G01X-27000Y49506D02*
Y57000D01*
G01Y69506D02*
Y77000D01*
G01D02*
Y84494D01*
G01X-34494Y77000D02*
X-27000D01*
G01D02*
X-19506D01*
G01X-27000Y57000D02*
Y64494D01*
G01X-34494Y57000D02*
X-27000D01*
G01D02*
X-19506D01*
G01X15000Y-100000D02*
X20293Y-94707D01*
G01X9707D02*
X15000Y-100000D01*
G01D02*
X20293Y-105293D01*
G01X-7000Y-14000D02*
X-1707Y-8707D01*
G01X-7000Y-14000D02*
X-1707Y-19293D01*
G01X2707Y44707D02*
X8000Y50000D01*
G01D02*
X13293Y55293D01*
G01X2707D02*
X8000Y50000D01*
G01D02*
X13293Y44707D01*
G01X27707Y-76293D02*
X33000Y-71000D01*
G01D02*
X38293Y-65707D01*
G01X27707D02*
X33000Y-71000D01*
G01D02*
X38293Y-76293D01*
G01X22707Y-47293D02*
X28000Y-42000D01*
G01D02*
X33293Y-36707D01*
G01X22707D02*
X28000Y-42000D01*
G01D02*
X33293Y-47293D01*
G01X111148Y-137852D02*
X116441Y-132559D01*
G01D02*
X121734Y-137852D01*
G01X120707Y-92293D02*
X126000Y-87000D01*
G01D02*
X131293Y-81707D01*
G01X120707D02*
X126000Y-87000D01*
G01D02*
X131293Y-92293D01*
M02*
