G04 ================== begin FILE IDENTIFICATION RECORD ==================*
G04 Layout Name:  K:/ORCAD/DESIGN/BEESAFE/allegro/beeSafe_1V3.brd*
G04 Film Name:    TOP*
G04 File Format:  Gerber RS274X*
G04 File Origin:  Cadence Allegro 17.2-S055*
G04 Origin Date:  Wed Mar 18 16:12:03 2020*
G04 *
G04 Layer:  ETCH/TOP*
G04 Layer:  PIN/TOP*
G04 Layer:  VIA CLASS/TOP*
G04 *
G04 Offset:    (0.00 0.00)*
G04 Mirror:    No*
G04 Mode:      Positive*
G04 Rotation:  0*
G04 FullContactRelief:  No*
G04 UndefLineWidth:     0.00*
G04 ================== end FILE IDENTIFICATION RECORD ====================*
%FSLAX25Y25*MOIN*%
%IR0*IPPOS*OFA0.00000B0.00000*MIA0B0*SFA1.00000B1.00000*%
%ADD20C,.06*%
%ADD10C,.08*%
%ADD32R,.08X.08*%
%AMMACRO28*
4,1,44,.01141,-.00531,
.01141,.00531,
.011338,.006199,
.011108,.007061,
.010732,.007871,
.01022,.008602,
.00959,.009234,
.008859,.009747,
.008051,.010125,
.007189,.010356,
.0063,.010435,
.00629,.01043,
-.00629,.01043,
-.007179,.010358,
-.008041,.010128,
-.008851,.009752,
-.009582,.00924,
-.010214,.00861,
-.010727,.007879,
-.011105,.007071,
-.011336,.006209,
-.011415,.00532,
-.01141,.00531,
-.01141,-.00531,
-.011338,-.006199,
-.011108,-.007061,
-.010732,-.007871,
-.01022,-.008602,
-.00959,-.009234,
-.008859,-.009747,
-.008051,-.010125,
-.007189,-.010356,
-.0063,-.010435,
-.00629,-.01043,
.00629,-.01043,
.007179,-.010358,
.008041,-.010128,
.008851,-.009752,
.009582,-.00924,
.010214,-.00861,
.010727,-.007879,
.011105,-.007071,
.011336,-.006209,
.011415,-.00532,
.01141,-.00531,
0.0*
%
%ADD28MACRO28*%
%ADD21R,.04331X.04331*%
%AMMACRO11*
4,1,40,.00689,-.02402,
.00689,.02402,
.006836,.024635,
.006677,.025231,
.006416,.02579,
.006062,.026295,
.005625,.026732,
.00512,.027086,
.004561,.027347,
.003965,.027506,
.00335,.02756,
-.00335,.02756,
-.003965,.027506,
-.004561,.027347,
-.00512,.027086,
-.005625,.026732,
-.006062,.026295,
-.006416,.02579,
-.006677,.025231,
-.006836,.024635,
-.00689,.02402,
-.00689,-.02402,
-.006836,-.024635,
-.006677,-.025231,
-.006416,-.02579,
-.006062,-.026295,
-.005625,-.026732,
-.00512,-.027086,
-.004561,-.027347,
-.003965,-.027506,
-.00335,-.02756,
.00335,-.02756,
.003965,-.027506,
.004561,-.027347,
.00512,-.027086,
.005625,-.026732,
.006062,-.026295,
.006416,-.02579,
.006677,-.025231,
.006836,-.024635,
.00689,-.02402,
0.0*
%
%ADD11MACRO11*%
%ADD24C,.08583*%
%ADD17C,.09843*%
%ADD14R,.05X.05*%
%ADD15R,.05X.05*%
%ADD30R,.032X.038*%
%ADD25R,.038X.032*%
%ADD34R,.0315X.02126*%
%ADD19R,.05906X.0315*%
%ADD26R,.16732X.10906*%
%AMMACRO22*
4,1,44,-.01141,.00531,
-.01141,-.00531,
-.011338,-.006199,
-.011108,-.007061,
-.010732,-.007871,
-.01022,-.008602,
-.00959,-.009234,
-.008859,-.009747,
-.008051,-.010125,
-.007189,-.010356,
-.0063,-.010435,
-.00629,-.01043,
.00629,-.01043,
.007179,-.010358,
.008041,-.010128,
.008851,-.009752,
.009582,-.00924,
.010214,-.00861,
.010727,-.007879,
.011105,-.007071,
.011336,-.006209,
.011415,-.00532,
.01141,-.00531,
.01141,.00531,
.011338,.006199,
.011108,.007061,
.010732,.007871,
.01022,.008602,
.00959,.009234,
.008859,.009747,
.008051,.010125,
.007189,.010356,
.0063,.010435,
.00629,.01043,
-.00629,.01043,
-.007179,.010358,
-.008041,.010128,
-.008851,.009752,
-.009582,.00924,
-.010214,.00861,
-.010727,.007879,
-.011105,.007071,
-.011336,.006209,
-.011415,.00532,
-.01141,.00531,
0.0*
%
%ADD22MACRO22*%
%ADD18R,.0315X.05906*%
%AMMACRO12*
4,1,44,.00531,.01141,
-.00531,.01141,
-.006199,.011338,
-.007061,.011108,
-.007871,.010732,
-.008602,.01022,
-.009234,.00959,
-.009747,.008859,
-.010125,.008051,
-.010356,.007189,
-.010435,.0063,
-.01043,.00629,
-.01043,-.00629,
-.010358,-.007179,
-.010128,-.008041,
-.009752,-.008851,
-.00924,-.009582,
-.00861,-.010214,
-.007879,-.010727,
-.007071,-.011105,
-.006209,-.011336,
-.00532,-.011415,
-.00531,-.01141,
.00531,-.01141,
.006199,-.011338,
.007061,-.011108,
.007871,-.010732,
.008602,-.01022,
.009234,-.00959,
.009747,-.008859,
.010125,-.008051,
.010356,-.007189,
.010435,-.0063,
.01043,-.00629,
.01043,.00629,
.010358,.007179,
.010128,.008041,
.009752,.008851,
.00924,.009582,
.00861,.010214,
.007879,.010727,
.007071,.011105,
.006209,.011336,
.00532,.011415,
.00531,.01141,
0.0*
%
%ADD12MACRO12*%
%ADD16R,.01378X.05512*%
%ADD31R,.05512X.02559*%
%AMMACRO29*
4,1,44,-.05079,-.02145,
.05079,-.02145,
.052499,-.021306,
.054155,-.020862,
.05571,-.020137,
.057115,-.019153,
.058328,-.01794,
.059312,-.016535,
.060037,-.01498,
.060481,-.013324,
.06063,-.011615,
.06063,-.01161,
.06063,.01161,
.060481,.013319,
.060038,.014976,
.059314,.016531,
.058331,.017936,
.057119,.01915,
.055714,.020134,
.05416,.02086,
.052504,.021305,
.050795,.021455,
.05079,.02145,
-.05079,.02145,
-.052499,.021306,
-.054155,.020862,
-.05571,.020137,
-.057115,.019153,
-.058328,.01794,
-.059312,.016535,
-.060037,.01498,
-.060481,.013324,
-.06063,.011615,
-.06063,.01161,
-.06063,-.01161,
-.060481,-.013319,
-.060038,-.014976,
-.059314,-.016531,
-.058331,-.017936,
-.057119,-.01915,
-.055714,-.020134,
-.05416,-.02086,
-.052504,-.021305,
-.050795,-.021455,
-.05079,-.02145,
0.0*
%
%ADD29MACRO29*%
%AMMACRO13*
4,1,40,-.00689,.02402,
-.00689,-.02402,
-.006836,-.024635,
-.006677,-.025231,
-.006416,-.02579,
-.006062,-.026295,
-.005625,-.026732,
-.00512,-.027086,
-.004561,-.027347,
-.003965,-.027506,
-.00335,-.02756,
.00335,-.02756,
.003965,-.027506,
.004561,-.027347,
.00512,-.027086,
.005625,-.026732,
.006062,-.026295,
.006416,-.02579,
.006677,-.025231,
.006836,-.024635,
.00689,-.02402,
.00689,.02402,
.006836,.024635,
.006677,.025231,
.006416,.02579,
.006062,.026295,
.005625,.026732,
.00512,.027086,
.004561,.027347,
.003965,.027506,
.00335,.02756,
-.00335,.02756,
-.003965,.027506,
-.004561,.027347,
-.00512,.027086,
-.005625,.026732,
-.006062,.026295,
-.006416,.02579,
-.006677,.025231,
-.006836,.024635,
-.00689,.02402,
0.0*
%
%ADD13MACRO13*%
%ADD27R,.05315X.02559*%
%ADD23R,.03543X.05906*%
%ADD33R,.0748X.06299*%
%AMMACRO35*
4,1,44,.13917,.20669,
-.13917,.20669,
-.140879,.206546,
-.142536,.206103,
-.144091,.205379,
-.145496,.204396,
-.14671,.203184,
-.147694,.201779,
-.14842,.200225,
-.148865,.198569,
-.149015,.19686,
-.14901,.19685,
-.14901,-.19685,
-.148866,-.198559,
-.148423,-.200216,
-.147699,-.201771,
-.146716,-.203176,
-.145504,-.20439,
-.144099,-.205374,
-.142545,-.2061,
-.140889,-.206545,
-.13918,-.206695,
-.13917,-.20669,
.13917,-.20669,
.140879,-.206546,
.142536,-.206103,
.144091,-.205379,
.145496,-.204396,
.14671,-.203184,
.147694,-.201779,
.14842,-.200225,
.148865,-.198569,
.149015,-.19686,
.14901,-.19685,
.14901,.19685,
.148866,.198559,
.148423,.200216,
.147699,.201771,
.146716,.203176,
.145504,.20439,
.144099,.205374,
.142545,.2061,
.140889,.206545,
.13918,.206695,
.13917,.20669,
0.0*
%
%ADD35MACRO35*%
%ADD36C,.03*%
%ADD37C,.05*%
%ADD38C,.015*%
%ADD39C,.025*%
%ADD40C,.035*%
%ADD43R,.31502X.31502*%
%ADD41C,.14004*%
%ADD42C,.18846*%
G75*
%LPD*%
G75*
G36*
G01X-178999Y89999D02*
X163999D01*
Y41393D01*
G02X163316Y41111I-400J0D01*
G01X145713Y58713D01*
G03X142000Y60252I-3714J-3712D01*
G01X102742D01*
G03X99029Y58713I1J-5251D01*
G01X83348Y43032D01*
X80102D01*
Y43900D01*
G03X76600Y47402I-3502J0D01*
G01X73400D01*
G03X71419Y46787I1J-3502D01*
G03X70964Y46879I-820J-2887D01*
G02X70933Y47270I24J199D01*
G03X76002Y54000I-1933J6730D01*
G03X61998I-7002J0D01*
G03X66432Y47486I7002J0D01*
G02X66417Y46736I-146J-372D01*
G03X64398Y43900I982J-2836D01*
G01Y40100D01*
G03X67400Y37098I3002J0D01*
G01X70334D01*
G03X71463Y35363I4666J1802D01*
G01X72977Y33849D01*
G03X75606Y32468I3536J3538D01*
G03X75564Y31857I4443J-612D01*
G01Y29532D01*
G03X76445Y26862I4486J0D01*
G03X76064Y25162I3604J-1700D01*
G01Y24198D01*
G02X75857Y23998I-200J0D01*
G03X75665Y24002I-221J-5997D01*
G01X73902D01*
Y25600D01*
G03X70900Y28602I-3002J0D01*
G01X67100D01*
G03X64098Y25600I0J-3002D01*
G01Y24002D01*
X52043D01*
G03X51651Y23989I3J-6002D01*
G03X48366Y26278I-3285J-1213D01*
G01X31634D01*
G03X29836Y25780I2J-3501D01*
G03X26207Y27002I-3630J-4780D01*
G01X25899D01*
G02X25500Y27413I1J400D01*
G03X25502Y27500I-2999J112D01*
G01Y32500D01*
G03X22500Y35502I-3002J0D01*
G01X17500D01*
G03X14498Y32500I0J-3002D01*
G01Y27500D01*
G03X14659Y26531I3002J1D01*
G02X14281Y26002I-378J-129D01*
G01X13902D01*
Y28600D01*
G03X10900Y31602I-3002J0D01*
G01X7100D01*
G03X4098Y28600I0J-3002D01*
G01Y26002D01*
X2902D01*
Y28600D01*
G03X-100Y31602I-3002J0D01*
G01X-3900D01*
G03X-6635Y29835I1J-3001D01*
G02X-7365I-365J165D01*
G03X-10100Y31602I-2736J-1234D01*
G01X-13900D01*
G03X-16902Y28600I0J-3002D01*
G01Y26507D01*
G02X-17106Y26307I-200J0D01*
G03X-17205Y26308I-100J-5000D01*
G01X-18964D01*
X-18984Y26313D01*
G03X-19685Y26384I-702J-3431D01*
G01X-23769D01*
Y28000D01*
G03X-26771Y31002I-3002J0D01*
G01X-32256D01*
Y35821D01*
G03X-32248Y36091I-4744J276D01*
G03X-32436Y37413I-4752J-1D01*
G03X-32601Y38000I-3935J-789D01*
G03X-32436Y38587I-3770J1376D01*
G03X-32248Y39909I-4564J1323D01*
G01Y41377D01*
G02X-31690Y41744I400J0D01*
G03X-30500Y41498I1190J2755D01*
G01X-25500D01*
G03X-22498Y44500I0J3002D01*
G01Y49500D01*
G03X-22887Y50977I-3002J-1D01*
G03X-19707Y57000I-4114J6023D01*
G03X-27000Y64293I-7293J0D01*
G01X-27002D01*
G03X-28065Y64215I1J-7293D01*
G02X-28509Y64715I-58J396D01*
G03X-28207Y67000I-8491J2285D01*
G03X-28509Y69285I-8793J0D01*
G02X-28065Y69785I386J104D01*
G03X-27002Y69707I1064J7215D01*
G01X-27000D01*
G03X-34293Y77000I0J7293D01*
G01Y76998D01*
G03X-34215Y75935I7293J1D01*
G02X-34715Y75491I-396J-58D01*
G03X-37000Y75793I-2285J-8491D01*
G03X-39285Y75491I0J-8793D01*
G02X-39785Y75935I-104J386D01*
G03X-39707Y76998I-7215J1064D01*
G01Y77000D01*
G03X-47000Y69707I-7293J0D01*
G01X-46998D01*
G03X-45935Y69785I-1J7293D01*
G02X-45491Y69285I58J-396D01*
G03X-45793Y67000I8491J-2285D01*
G03X-45491Y64715I8793J0D01*
G02X-45935Y64215I-386J-104D01*
G03X-46998Y64293I-1064J-7215D01*
G01X-47000D01*
G03Y49707I0J-7293D01*
G03X-43522Y50590I0J7293D01*
G02X-43331Y50639I192J-351D01*
G02X-42938Y50163I0J-400D01*
G03X-43002Y49500I3438J-666D01*
G01Y44500D01*
G03X-41752Y41818I3502J0D01*
G01Y39909D01*
G03X-41564Y38587I4752J1D01*
G03X-41399Y38000I3935J789D01*
G03X-41551Y37476I3769J-1377D01*
G03X-41760Y36083I4543J-1394D01*
G01Y31002D01*
X-55906D01*
G03X-56398Y30961I2J-3002D01*
G03X-56890Y31002I-494J-2961D01*
G01X-58024D01*
G02X-58293Y31698I0J400D01*
G03X-55498Y38000I-5707J6302D01*
G03X-64000Y46502I-8502J0D01*
G03X-71050Y42752I0J-8502D01*
G01X-75123D01*
G03X-78483Y41360I0J-4751D01*
G01X-92944Y26898D01*
X-135555D01*
G03X-138913Y25507I1J-4751D01*
G01X-140360Y24060D01*
G03X-141428Y22424I3360J-3360D01*
G03X-143002Y19500I1929J-2924D01*
G01Y5500D01*
G03X-141752Y2818I3502J0D01*
G01Y-377D01*
G02X-142310Y-744I-400J0D01*
G03X-143500Y-498I-1190J-2755D01*
G01X-148500D01*
G03X-151502Y-3500I0J-3002D01*
G01Y-8500D01*
G03X-148500Y-11502I3002J0D01*
G01X-143500D01*
G03X-141906Y-11044I0J3003D01*
G03X-139500Y-12002I2407J2544D01*
G01X-134500D01*
G03X-131818Y-10752I0J3502D01*
G01X-128050D01*
G03X-126809Y-12208I7050J4752D01*
G02Y-12792I-273J-292D01*
G03X-129502Y-19000I5809J-6208D01*
G03X-128871Y-22214I8501J0D01*
G03X-129360Y-22640I2869J-3787D01*
G01X-141199Y-34479D01*
G03X-142590Y-37839I3360J-3359D01*
G03X-142111Y-39920I4751J-2D01*
G01X-142090Y-39961D01*
Y-40415D01*
G02X-142432Y-40556I-200J1D01*
G01X-142994Y-39994D01*
G03X-146000Y-38748I-3007J-3006D01*
G01X-149832D01*
G03X-151557Y-38358I-1726J-3623D01*
G01X-152626D01*
G03X-154000Y-38601I1J-4013D01*
G03X-154587Y-38436I-1376J-3770D01*
G03X-155909Y-38248I-1323J-4564D01*
G01X-159889D01*
G03X-161410Y-37998I-1521J-4502D01*
G01X-166750D01*
G03X-170110Y-39390I0J-4751D01*
G01X-174110Y-43390D01*
G03X-175502Y-46750I3359J-3360D01*
G01Y-51090D01*
G03X-174110Y-54450I4751J0D01*
G01X-169950Y-58610D01*
G03X-166590Y-60002I3360J3359D01*
G01X-160660D01*
Y-66093D01*
G03X-159269Y-69451I4751J1D01*
G01X-154360Y-74360D01*
G03X-151000Y-75752I3360J3359D01*
G01X-146647D01*
Y-75955D01*
G03X-146648Y-76015I3355J-86D01*
G01Y-80819D01*
G03X-143294Y-84174I3355J0D01*
G01X-142622D01*
G03X-142504Y-84172I2J3355D01*
G02X-142090Y-84572I14J-400D01*
G01Y-94989D01*
G03X-142590Y-97111I4251J-2122D01*
G03X-141199Y-100471I4751J-1D01*
G01X-101810Y-139860D01*
G03X-101697Y-139969I3355J3365D01*
G02X-101833Y-140315I-137J-146D01*
G01X-178999D01*
Y89999D01*
G37*
G36*
G01X-130998Y17396D02*
X-92944D01*
X-89165Y13616D01*
G03X-88952Y13416I3357J3362D01*
G02X-89085Y13066I-133J-150D01*
G01X-103435D01*
G03X-105103Y12764I-1J-4751D01*
G01X-105137Y12752D01*
X-108000D01*
G03X-112752Y8000I0J-4752D01*
G01Y-1799D01*
G02X-113504Y-1988I-400J0D01*
G03X-121000Y2502I-7496J-4012D01*
G03X-128050Y-1248I0J-8502D01*
G01X-131818D01*
G03X-132248Y-818I-2682J-2252D01*
G01Y2818D01*
G03X-130998Y5500I-2252J2682D01*
G01Y17396D01*
G37*
G36*
G01D02*
X-92944D01*
X-89165Y13616D01*
G03X-88952Y13416I3357J3362D01*
G02X-89085Y13066I-133J-150D01*
G01X-103435D01*
G03X-105103Y12764I-1J-4751D01*
G01X-105137Y12752D01*
X-108000D01*
G03X-112752Y8000I0J-4752D01*
G01Y-1799D01*
G02X-113504Y-1988I-400J0D01*
G03X-121000Y2502I-7496J-4012D01*
G03X-128050Y-1248I0J-8502D01*
G01X-131818D01*
G03X-132248Y-818I-2682J-2252D01*
G01Y2818D01*
G03X-130998Y5500I-2252J2682D01*
G01Y17396D01*
G37*
G36*
G01D02*
X-92944D01*
X-89165Y13616D01*
G03X-88952Y13416I3357J3362D01*
G02X-89085Y13066I-133J-150D01*
G01X-103435D01*
G03X-105103Y12764I-1J-4751D01*
G01X-105137Y12752D01*
X-108000D01*
G03X-112752Y8000I0J-4752D01*
G01Y-1799D01*
G02X-113504Y-1988I-400J0D01*
G03X-121000Y2502I-7496J-4012D01*
G03X-128050Y-1248I0J-8502D01*
G01X-131818D01*
G03X-132248Y-818I-2682J-2252D01*
G01Y2818D01*
G03X-130998Y5500I-2252J2682D01*
G01Y17396D01*
G37*
G36*
G01X-72144Y-108502D02*
X-60414D01*
G02X-60044Y-109052I0J-400D01*
G03X-60561Y-111693I6485J-2641D01*
G03X-59416Y-115530I7002J0D01*
G03X-62061Y-121693I5858J-6163D01*
G03X-59701Y-127572I8503J0D01*
G02X-59990Y-128248I-289J-276D01*
G01X-95032D01*
X-96602Y-126678D01*
G02X-96302Y-125995I282J283D01*
G03X-96000Y-126002I313J6995D01*
G03X-103002Y-119000I0J7002D01*
G03X-102995Y-119302I7002J11D01*
G02X-103678Y-119602I-400J-18D01*
G01X-114096Y-109184D01*
G02X-113813Y-108502I283J282D01*
G01X-84108D01*
G02X-83864Y-109219I0J-400D01*
G03X-87549Y-116693I5737J-7474D01*
G03X-68703I9423J0D01*
G03X-72388Y-109219I-9422J0D01*
G02X-72144Y-108502I244J317D01*
G37*
G36*
G01D02*
X-60414D01*
G02X-60044Y-109052I0J-400D01*
G03X-60561Y-111693I6485J-2641D01*
G03X-59416Y-115530I7002J0D01*
G03X-62061Y-121693I5858J-6163D01*
G03X-59701Y-127572I8503J0D01*
G02X-59990Y-128248I-289J-276D01*
G01X-95032D01*
X-96602Y-126678D01*
G02X-96302Y-125995I282J283D01*
G03X-96000Y-126002I313J6995D01*
G03X-103002Y-119000I0J7002D01*
G03X-102995Y-119302I7002J11D01*
G02X-103678Y-119602I-400J-18D01*
G01X-114096Y-109184D01*
G02X-113813Y-108502I283J282D01*
G01X-84108D01*
G02X-83864Y-109219I0J-400D01*
G03X-87549Y-116693I5737J-7474D01*
G03X-68703I9423J0D01*
G03X-72388Y-109219I-9422J0D01*
G02X-72144Y-108502I244J317D01*
G37*
G36*
G01D02*
X-60414D01*
G02X-60044Y-109052I0J-400D01*
G03X-60561Y-111693I6485J-2641D01*
G03X-59416Y-115530I7002J0D01*
G03X-62061Y-121693I5858J-6163D01*
G03X-59701Y-127572I8503J0D01*
G02X-59990Y-128248I-289J-276D01*
G01X-95032D01*
X-96602Y-126678D01*
G02X-96302Y-125995I282J283D01*
G03X-96000Y-126002I313J6995D01*
G03X-103002Y-119000I0J7002D01*
G03X-102995Y-119302I7002J11D01*
G02X-103678Y-119602I-400J-18D01*
G01X-114096Y-109184D01*
G02X-113813Y-108502I283J282D01*
G01X-84108D01*
G02X-83864Y-109219I0J-400D01*
G03X-87549Y-116693I5737J-7474D01*
G03X-68703I9423J0D01*
G03X-72388Y-109219I-9422J0D01*
G02X-72144Y-108502I244J317D01*
G37*
G36*
G01X-99498Y-69500D02*
Y-67259D01*
G02X-98816Y-66976I400J0D01*
G01X-96752Y-69040D01*
Y-81072D01*
G03X-96619Y-82188I4752J0D01*
G03X-100695Y-84927I1619J-6812D01*
G02X-101303Y-84977I-325J233D01*
G01X-101393Y-84887D01*
G02X-101274Y-84240I283J282D01*
G03X-99498Y-81500I-1226J2740D01*
G01Y-76500D01*
G03X-102500Y-73498I-3002J0D01*
G01X-107500D01*
G03X-109094Y-73956I0J-3003D01*
G03X-109953Y-73359I-2405J-2544D01*
G02Y-72641I177J359D01*
G03X-109094Y-72044I-1546J3141D01*
G03X-107500Y-72502I1594J2545D01*
G01X-102500D01*
G03X-99498Y-69500I0J3002D01*
G37*
G36*
G01D02*
Y-67259D01*
G02X-98816Y-66976I400J0D01*
G01X-96752Y-69040D01*
Y-81072D01*
G03X-96619Y-82188I4752J0D01*
G03X-100695Y-84927I1619J-6812D01*
G02X-101303Y-84977I-325J233D01*
G01X-101393Y-84887D01*
G02X-101274Y-84240I283J282D01*
G03X-99498Y-81500I-1226J2740D01*
G01Y-76500D01*
G03X-102500Y-73498I-3002J0D01*
G01X-107500D01*
G03X-109094Y-73956I0J-3003D01*
G03X-109953Y-73359I-2405J-2544D01*
G02Y-72641I177J359D01*
G03X-109094Y-72044I-1546J3141D01*
G03X-107500Y-72502I1594J2545D01*
G01X-102500D01*
G03X-99498Y-69500I0J3002D01*
G37*
G36*
G01D02*
Y-67259D01*
G02X-98816Y-66976I400J0D01*
G01X-96752Y-69040D01*
Y-81072D01*
G03X-96619Y-82188I4752J0D01*
G03X-100695Y-84927I1619J-6812D01*
G02X-101303Y-84977I-325J233D01*
G01X-101393Y-84887D01*
G02X-101274Y-84240I283J282D01*
G03X-99498Y-81500I-1226J2740D01*
G01Y-76500D01*
G03X-102500Y-73498I-3002J0D01*
G01X-107500D01*
G03X-109094Y-73956I0J-3003D01*
G03X-109953Y-73359I-2405J-2544D01*
G02Y-72641I177J359D01*
G03X-109094Y-72044I-1546J3141D01*
G03X-107500Y-72502I1594J2545D01*
G01X-102500D01*
G03X-99498Y-69500I0J3002D01*
G37*
G36*
G01X-112654Y-17374D02*
X-109090Y-13809D01*
G02X-108439Y-14249I283J-283D01*
G03X-109002Y-17000I6440J-2751D01*
G03X-107981Y-20641I7003J0D01*
G02X-108323Y-21248I-342J-207D01*
G01X-112292D01*
G02X-112683Y-20765I0J400D01*
G03X-112498Y-19000I-8317J1764D01*
G03X-112636Y-17477I-8502J-3D01*
G01X-112654Y-17374D01*
G37*
G36*
G01X-102049Y3564D02*
X-96053D01*
G02X-95726Y2934I0J-400D01*
G03X-96454Y631I3285J-2305D01*
G01Y-631D01*
G03X-96212Y-2000I4013J4D01*
G03X-96454Y-3369I3771J-1373D01*
G01Y-4631D01*
G03X-95991Y-6500I4013J2D01*
G03X-96454Y-8369I3550J-1871D01*
G01Y-9631D01*
G03X-95886Y-11686I4013J3D01*
G03X-95954Y-12369I3445J-688D01*
G01Y-12994D01*
X-96256D01*
X-96316Y-12911D01*
G03X-102000Y-9998I-5684J-4089D01*
G03X-104751Y-10561I0J-7003D01*
G02X-105191Y-9910I-157J368D01*
G01X-104640Y-9360D01*
G03X-103248Y-6000I-3359J3360D01*
G01Y3272D01*
X-103077Y3296D01*
G03X-102049Y3564I-677J4703D01*
G37*
G36*
G01X-112654Y-17374D02*
X-109090Y-13809D01*
G02X-108439Y-14249I283J-283D01*
G03X-109002Y-17000I6440J-2751D01*
G03X-107981Y-20641I7003J0D01*
G02X-108323Y-21248I-342J-207D01*
G01X-112292D01*
G02X-112683Y-20765I0J400D01*
G03X-112498Y-19000I-8317J1764D01*
G03X-112636Y-17477I-8502J-3D01*
G01X-112654Y-17374D01*
G37*
G36*
G01X-102049Y3564D02*
X-96053D01*
G02X-95726Y2934I0J-400D01*
G03X-96454Y631I3285J-2305D01*
G01Y-631D01*
G03X-96212Y-2000I4013J4D01*
G03X-96454Y-3369I3771J-1373D01*
G01Y-4631D01*
G03X-95991Y-6500I4013J2D01*
G03X-96454Y-8369I3550J-1871D01*
G01Y-9631D01*
G03X-95886Y-11686I4013J3D01*
G03X-95954Y-12369I3445J-688D01*
G01Y-12994D01*
X-96256D01*
X-96316Y-12911D01*
G03X-102000Y-9998I-5684J-4089D01*
G03X-104751Y-10561I0J-7003D01*
G02X-105191Y-9910I-157J368D01*
G01X-104640Y-9360D01*
G03X-103248Y-6000I-3359J3360D01*
G01Y3272D01*
X-103077Y3296D01*
G03X-102049Y3564I-677J4703D01*
G37*
G36*
G01X-112654Y-17374D02*
X-109090Y-13809D01*
G02X-108439Y-14249I283J-283D01*
G03X-109002Y-17000I6440J-2751D01*
G03X-107981Y-20641I7003J0D01*
G02X-108323Y-21248I-342J-207D01*
G01X-112292D01*
G02X-112683Y-20765I0J400D01*
G03X-112498Y-19000I-8317J1764D01*
G03X-112636Y-17477I-8502J-3D01*
G01X-112654Y-17374D01*
G37*
G36*
G01X-102049Y3564D02*
X-96053D01*
G02X-95726Y2934I0J-400D01*
G03X-96454Y631I3285J-2305D01*
G01Y-631D01*
G03X-96212Y-2000I4013J4D01*
G03X-96454Y-3369I3771J-1373D01*
G01Y-4631D01*
G03X-95991Y-6500I4013J2D01*
G03X-96454Y-8369I3550J-1871D01*
G01Y-9631D01*
G03X-95886Y-11686I4013J3D01*
G03X-95954Y-12369I3445J-688D01*
G01Y-12994D01*
X-96256D01*
X-96316Y-12911D01*
G03X-102000Y-9998I-5684J-4089D01*
G03X-104751Y-10561I0J-7003D01*
G02X-105191Y-9910I-157J368D01*
G01X-104640Y-9360D01*
G03X-103248Y-6000I-3359J3360D01*
G01Y3272D01*
X-103077Y3296D01*
G03X-102049Y3564I-677J4703D01*
G37*
G36*
G01X-82248Y-74182D02*
Y-69919D01*
G02X-81667Y-69562I400J0D01*
G03X-80315Y-69884I1353J2680D01*
G01X-76230D01*
Y-72002D01*
G02X-76676Y-72399I-400J0D01*
G03X-77362Y-72360I-683J-5963D01*
G03X-81806Y-74327I-1J-6002D01*
G01X-81809Y-74331D01*
X-81954Y-74476D01*
X-82248Y-74182D01*
G37*
G36*
G01X-71686Y-75002D02*
X-70703D01*
X-70656Y-75029D01*
G03X-68898Y-75502I1758J3029D01*
G01X-67744D01*
Y-76027D01*
X-67786Y-76082D01*
G03X-68564Y-77769I3156J-2478D01*
G03X-68625Y-78003I4566J-1315D01*
G01X-68662Y-78158D01*
X-71361D01*
X-71373Y-77971D01*
G03X-72040Y-75586I-5989J-389D01*
G02X-71686Y-75002I355J184D01*
G37*
G36*
G01X-82248Y-74182D02*
Y-69919D01*
G02X-81667Y-69562I400J0D01*
G03X-80315Y-69884I1353J2680D01*
G01X-76230D01*
Y-72002D01*
G02X-76676Y-72399I-400J0D01*
G03X-77362Y-72360I-683J-5963D01*
G03X-81806Y-74327I-1J-6002D01*
G01X-81809Y-74331D01*
X-81954Y-74476D01*
X-82248Y-74182D01*
G37*
G36*
G01X-71686Y-75002D02*
X-70703D01*
X-70656Y-75029D01*
G03X-68898Y-75502I1758J3029D01*
G01X-67744D01*
Y-76027D01*
X-67786Y-76082D01*
G03X-68564Y-77769I3156J-2478D01*
G03X-68625Y-78003I4566J-1315D01*
G01X-68662Y-78158D01*
X-71361D01*
X-71373Y-77971D01*
G03X-72040Y-75586I-5989J-389D01*
G02X-71686Y-75002I355J184D01*
G37*
G36*
G01X-82248Y-74182D02*
Y-69919D01*
G02X-81667Y-69562I400J0D01*
G03X-80315Y-69884I1353J2680D01*
G01X-76230D01*
Y-72002D01*
G02X-76676Y-72399I-400J0D01*
G03X-77362Y-72360I-683J-5963D01*
G03X-81806Y-74327I-1J-6002D01*
G01X-81809Y-74331D01*
X-81954Y-74476D01*
X-82248Y-74182D01*
G37*
G36*
G01X-83999Y-61281D02*
X-87531Y-57749D01*
G02X-87248Y-57066I283J283D01*
G01X-83816D01*
Y-58221D01*
G03X-83344Y-59978I3501J-1D01*
G01X-83316Y-60025D01*
Y-60998D01*
G02X-83999Y-61281I-400J0D01*
G37*
G36*
G01X-65502Y6100D02*
X-34498D01*
Y2016D01*
G03X-31496Y-986I3002J0D01*
G01X-29092D01*
Y-1921D01*
G03X-29042Y-2512I3501J-1D01*
G03X-29092Y-3102I3451J-590D01*
G01Y-4825D01*
X-31496D01*
G03X-34498Y-7826I-1J-3002D01*
G01Y-12158D01*
G03X-31496Y-15159I3002J1D01*
G01X-29088D01*
X-29067Y-15335D01*
G03X-29042Y-15504I3475J428D01*
G03X-29092Y-16094I3451J-590D01*
G01Y-19244D01*
G03X-28592Y-21047I3501J0D01*
G01Y-22953D01*
G03X-29092Y-24756I3001J-1803D01*
G01Y-27906D01*
G03X-29042Y-28496I3501J0D01*
G03X-29067Y-28665I3450J-597D01*
G01X-29088Y-28841D01*
X-31496D01*
G03X-34498Y-31842I-1J-3001D01*
G01Y-36174D01*
G03X-31496Y-39175I3002J0D01*
G01X-29092D01*
Y-40898D01*
G03X-29042Y-41488I3501J0D01*
G03X-29092Y-42079I3451J-590D01*
G01Y-43014D01*
X-31496D01*
G03X-34498Y-46016I-1J-3001D01*
G01Y-50100D01*
X-65502D01*
Y-46016D01*
G03X-68504Y-43014I-3001J1D01*
G01X-70908D01*
Y-42079D01*
G03X-70958Y-41488I-3501J1D01*
G03X-70908Y-40898I-3451J590D01*
G01Y-39175D01*
X-68504D01*
G03X-65502Y-36174I1J3001D01*
G01Y-31842D01*
G03X-68504Y-28841I-3001J0D01*
G01X-70912D01*
X-70933Y-28665D01*
G03X-70958Y-28496I-3475J-428D01*
G03X-70908Y-27906I-3451J590D01*
G01Y-24756D01*
G03X-70958Y-24166I-3501J0D01*
G03X-70908Y-23575I-3451J590D01*
G01Y-20425D01*
G03X-70958Y-19834I-3501J1D01*
G03X-70908Y-19244I-3451J590D01*
G01Y-16094D01*
G03X-70958Y-15504I-3501J0D01*
G03X-70933Y-15335I-3450J597D01*
G01X-70912Y-15159D01*
X-68504D01*
G03X-65502Y-12158I1J3002D01*
G01Y-7826D01*
G03X-68504Y-4825I-3001J0D01*
G01X-70908D01*
Y-3102D01*
G03X-70958Y-2512I-3501J0D01*
G03X-70908Y-1921I-3451J590D01*
G01Y-986D01*
X-68504D01*
G03X-65502Y2016I1J3002D01*
G01Y6100D01*
G37*
G36*
G01X-83999Y-61281D02*
X-87531Y-57749D01*
G02X-87248Y-57066I283J283D01*
G01X-83816D01*
Y-58221D01*
G03X-83344Y-59978I3501J-1D01*
G01X-83316Y-60025D01*
Y-60998D01*
G02X-83999Y-61281I-400J0D01*
G37*
G36*
G01X-65502Y6100D02*
X-34498D01*
Y2016D01*
G03X-31496Y-986I3002J0D01*
G01X-29092D01*
Y-1921D01*
G03X-29042Y-2512I3501J-1D01*
G03X-29092Y-3102I3451J-590D01*
G01Y-4825D01*
X-31496D01*
G03X-34498Y-7826I-1J-3002D01*
G01Y-12158D01*
G03X-31496Y-15159I3002J1D01*
G01X-29088D01*
X-29067Y-15335D01*
G03X-29042Y-15504I3475J428D01*
G03X-29092Y-16094I3451J-590D01*
G01Y-19244D01*
G03X-28592Y-21047I3501J0D01*
G01Y-22953D01*
G03X-29092Y-24756I3001J-1803D01*
G01Y-27906D01*
G03X-29042Y-28496I3501J0D01*
G03X-29067Y-28665I3450J-597D01*
G01X-29088Y-28841D01*
X-31496D01*
G03X-34498Y-31842I-1J-3001D01*
G01Y-36174D01*
G03X-31496Y-39175I3002J0D01*
G01X-29092D01*
Y-40898D01*
G03X-29042Y-41488I3501J0D01*
G03X-29092Y-42079I3451J-590D01*
G01Y-43014D01*
X-31496D01*
G03X-34498Y-46016I-1J-3001D01*
G01Y-50100D01*
X-65502D01*
Y-46016D01*
G03X-68504Y-43014I-3001J1D01*
G01X-70908D01*
Y-42079D01*
G03X-70958Y-41488I-3501J1D01*
G03X-70908Y-40898I-3451J590D01*
G01Y-39175D01*
X-68504D01*
G03X-65502Y-36174I1J3001D01*
G01Y-31842D01*
G03X-68504Y-28841I-3001J0D01*
G01X-70912D01*
X-70933Y-28665D01*
G03X-70958Y-28496I-3475J-428D01*
G03X-70908Y-27906I-3451J590D01*
G01Y-24756D01*
G03X-70958Y-24166I-3501J0D01*
G03X-70908Y-23575I-3451J590D01*
G01Y-20425D01*
G03X-70958Y-19834I-3501J1D01*
G03X-70908Y-19244I-3451J590D01*
G01Y-16094D01*
G03X-70958Y-15504I-3501J0D01*
G03X-70933Y-15335I-3450J597D01*
G01X-70912Y-15159D01*
X-68504D01*
G03X-65502Y-12158I1J3002D01*
G01Y-7826D01*
G03X-68504Y-4825I-3001J0D01*
G01X-70908D01*
Y-3102D01*
G03X-70958Y-2512I-3501J0D01*
G03X-70908Y-1921I-3451J590D01*
G01Y-986D01*
X-68504D01*
G03X-65502Y2016I1J3002D01*
G01Y6100D01*
G37*
G36*
G01X-83999Y-61281D02*
X-87531Y-57749D01*
G02X-87248Y-57066I283J283D01*
G01X-83816D01*
Y-58221D01*
G03X-83344Y-59978I3501J-1D01*
G01X-83316Y-60025D01*
Y-60998D01*
G02X-83999Y-61281I-400J0D01*
G37*
G36*
G01X-65502Y6100D02*
X-34498D01*
Y2016D01*
G03X-31496Y-986I3002J0D01*
G01X-29092D01*
Y-1921D01*
G03X-29042Y-2512I3501J-1D01*
G03X-29092Y-3102I3451J-590D01*
G01Y-4825D01*
X-31496D01*
G03X-34498Y-7826I-1J-3002D01*
G01Y-12158D01*
G03X-31496Y-15159I3002J1D01*
G01X-29088D01*
X-29067Y-15335D01*
G03X-29042Y-15504I3475J428D01*
G03X-29092Y-16094I3451J-590D01*
G01Y-19244D01*
G03X-28592Y-21047I3501J0D01*
G01Y-22953D01*
G03X-29092Y-24756I3001J-1803D01*
G01Y-27906D01*
G03X-29042Y-28496I3501J0D01*
G03X-29067Y-28665I3450J-597D01*
G01X-29088Y-28841D01*
X-31496D01*
G03X-34498Y-31842I-1J-3001D01*
G01Y-36174D01*
G03X-31496Y-39175I3002J0D01*
G01X-29092D01*
Y-40898D01*
G03X-29042Y-41488I3501J0D01*
G03X-29092Y-42079I3451J-590D01*
G01Y-43014D01*
X-31496D01*
G03X-34498Y-46016I-1J-3001D01*
G01Y-50100D01*
X-65502D01*
Y-46016D01*
G03X-68504Y-43014I-3001J1D01*
G01X-70908D01*
Y-42079D01*
G03X-70958Y-41488I-3501J1D01*
G03X-70908Y-40898I-3451J590D01*
G01Y-39175D01*
X-68504D01*
G03X-65502Y-36174I1J3001D01*
G01Y-31842D01*
G03X-68504Y-28841I-3001J0D01*
G01X-70912D01*
X-70933Y-28665D01*
G03X-70958Y-28496I-3475J-428D01*
G03X-70908Y-27906I-3451J590D01*
G01Y-24756D01*
G03X-70958Y-24166I-3501J0D01*
G03X-70908Y-23575I-3451J590D01*
G01Y-20425D01*
G03X-70958Y-19834I-3501J1D01*
G03X-70908Y-19244I-3451J590D01*
G01Y-16094D01*
G03X-70958Y-15504I-3501J0D01*
G03X-70933Y-15335I-3450J597D01*
G01X-70912Y-15159D01*
X-68504D01*
G03X-65502Y-12158I1J3002D01*
G01Y-7826D01*
G03X-68504Y-4825I-3001J0D01*
G01X-70908D01*
Y-3102D01*
G03X-70958Y-2512I-3501J0D01*
G03X-70908Y-1921I-3451J590D01*
G01Y-986D01*
X-68504D01*
G03X-65502Y2016I1J3002D01*
G01Y6100D01*
G37*
G36*
G01X-73155Y33248D02*
X-71050D01*
G03X-69288Y31343I7049J4753D01*
G02X-69393Y30987I-124J-157D01*
G03X-69588Y30961I299J-2987D01*
G03X-70079Y31002I-494J-2961D01*
G01X-73229D01*
G03X-76230Y28000I0J-3001D01*
G01Y25884D01*
X-79554D01*
G02X-79837Y26566I0J400D01*
G01X-73155Y33248D01*
G37*
G36*
G01D02*
X-71050D01*
G03X-69288Y31343I7049J4753D01*
G02X-69393Y30987I-124J-157D01*
G03X-69588Y30961I299J-2987D01*
G03X-70079Y31002I-494J-2961D01*
G01X-73229D01*
G03X-76230Y28000I0J-3001D01*
G01Y25884D01*
X-79554D01*
G02X-79837Y26566I0J400D01*
G01X-73155Y33248D01*
G37*
G36*
G01D02*
X-71050D01*
G03X-69288Y31343I7049J4753D01*
G02X-69393Y30987I-124J-157D01*
G03X-69588Y30961I299J-2987D01*
G03X-70079Y31002I-494J-2961D01*
G01X-73229D01*
G03X-76230Y28000I0J-3001D01*
G01Y25884D01*
X-79554D01*
G02X-79837Y26566I0J400D01*
G01X-73155Y33248D01*
G37*
G36*
G01X104917Y49748D02*
X139825D01*
X141370Y48203D01*
G02X141087Y47520I-283J-283D01*
G02X140983Y47534I1J400D01*
G03X139952Y47670I-1032J-3849D01*
G01X112114D01*
G03X108130Y43687I1J-3985D01*
G01Y4313D01*
G03X112114Y330I3985J2D01*
G01X139952D01*
G03X143936Y4313I-1J3985D01*
G01Y43687D01*
G03X143799Y44718I-3985J-5D01*
G02X143785Y44822I386J105D01*
G02X144468Y45105I400J0D01*
G01X154748Y34825D01*
Y-107780D01*
G02X154180Y-108143I-400J0D01*
G03X150220Y-107270I-3961J-8550D01*
G03X145541Y-108514I0J-9423D01*
G02X144942Y-108167I-199J347D01*
G01Y-107693D01*
G03X140441Y-103192I-4501J0D01*
G01X134659D01*
X118108Y-86640D01*
G03X114748Y-85248I-3360J-3359D01*
G01X78134D01*
G03X74774Y-86640I0J-4751D01*
G01X58067Y-103347D01*
X57964Y-103329D01*
G03X56441Y-103191I-1526J-8364D01*
G03X54918Y-103329I3J-8502D01*
G01X54815Y-103347D01*
X41108Y-89640D01*
G03X37748Y-88248I-3360J-3359D01*
G01X-4000D01*
G03X-7360Y-89640I0J-4751D01*
G01X-8968Y-91248D01*
X-22023D01*
G02X-22365Y-90641I0J400D01*
G03X-21344Y-87000I-5982J3641D01*
G03X-35348I-7002J0D01*
G03X-34327Y-90641I7003J0D01*
G02X-34669Y-91248I-342J-207D01*
G01X-58755D01*
G02X-59030Y-90558I0J400D01*
G03X-58941Y-90472I-3257J3460D01*
G01X-55413Y-86944D01*
G03X-53436Y-84231I-1958J3503D01*
G03X-53248Y-82909I-4564J1323D01*
G03X-53436Y-81587I-4752J-1D01*
G03X-53601Y-81000I-3935J-789D01*
G03X-53436Y-80413I-3770J1376D01*
G03X-53248Y-79091I-4564J1323D01*
G03X-53436Y-77769I-4752J-1D01*
G03X-53883Y-76574I-3934J-791D01*
G01X-53910Y-76528D01*
Y-75502D01*
X-50420D01*
Y-77243D01*
X-50431Y-77274D01*
G03X-50564Y-77769I3801J-1287D01*
G03X-50752Y-79091I4564J-1323D01*
G03X-50564Y-80413I4752J1D01*
G03X-50399Y-81000I3935J789D01*
G03X-50642Y-82374I3770J-1375D01*
G01Y-83442D01*
G03X-46631Y-87454I4013J1D01*
G01X-45369D01*
G03X-43000Y-86679I-2J4013D01*
G03X-40631Y-87454I2371J3238D01*
G01X-39369D01*
G03X-35358Y-83442I-2J4013D01*
G01Y-82374D01*
G03X-35601Y-81000I-4013J-1D01*
G03X-35436Y-80413I-3770J1376D01*
G03X-35248Y-79091I-4564J1323D01*
G03X-35436Y-77769I-4752J-1D01*
G03X-36529Y-75726I-3934J-791D01*
G01X-36588Y-75667D01*
Y-75002D01*
X-36055D01*
X-36009Y-75029D01*
G03X-34252Y-75502I1758J3029D01*
G01X-31102D01*
G03X-29300Y-75002I-1J3502D01*
G01X-26771D01*
G03X-23769Y-72000I0J3002D01*
G01Y-69884D01*
X-19685D01*
G03X-16684Y-66884I0J3001D01*
G01Y-64354D01*
G03X-16184Y-62551I-3001J1803D01*
G01Y-59400D01*
G03X-16234Y-58811I-3501J-1D01*
G03X-16184Y-58222I-3451J590D01*
G01Y-55068D01*
G03X-16234Y-54480I-3501J-2D01*
G03X-16184Y-53891I-3451J590D01*
G01Y-50739D01*
G03X-16234Y-50150I-3501J-1D01*
G03X-16184Y-49562I-3451J590D01*
G01Y-48406D01*
X-3968D01*
X6986Y-59360D01*
G03X10346Y-60752I3360J3359D01*
G01X45098D01*
Y-63600D01*
G03X48100Y-66602I3002J0D01*
G01X51900D01*
G03X54902Y-63600I0J3002D01*
G01Y-60842D01*
X63876D01*
X63904Y-61010D01*
G03X67369Y-63954I3467J569D01*
G01X68631D01*
G03X72096Y-61010I-2J3513D01*
G01X72124Y-60842D01*
X80852D01*
G03X84210Y-59451I-1J4751D01*
G01X84537Y-59124D01*
X85256D01*
G03X88757Y-55623I-1J3501D01*
G01Y-53064D01*
G03X88537Y-51843I-3501J-1D01*
G03X88757Y-50622I-3281J1222D01*
G01Y-48064D01*
G03X88537Y-46843I-3501J-1D01*
G03X88757Y-45622I-3281J1222D01*
G01Y-43064D01*
G03X88537Y-41843I-3501J-1D01*
G03X88757Y-40622I-3281J1222D01*
G01Y-38064D01*
G03X88537Y-36843I-3501J-1D01*
G03X88757Y-35622I-3281J1222D01*
G01Y-33064D01*
G03X88205Y-31177I-3501J0D01*
G03X88257Y-30622I-2949J556D01*
G01Y-28063D01*
G03X85256Y-25062I-3002J-1D01*
G01X79940D01*
G03X77009Y-27419I0J-3002D01*
G02X76336Y-27616I-391J86D01*
G01X75269Y-26549D01*
G03X74244Y-25771I-3359J-3361D01*
G01X74142Y-25714D01*
Y-25558D01*
G03X70631Y-22046I-3513J-1D01*
G01X69369D01*
G03X65904Y-24990I2J-3513D01*
G01X65876Y-25158D01*
X64902D01*
Y-22400D01*
G03X61900Y-19398I-3002J0D01*
G01X58100D01*
G03X56160Y-20110I1J-3002D01*
G02X55502Y-19805I-258J305D01*
G01Y-16500D01*
G03X52500Y-13498I-3002J0D01*
G01X47500D01*
G03X44498Y-16500I0J-3002D01*
G01Y-21500D01*
G03X44956Y-23094I3003J0D01*
G03X44729Y-23360I2547J-2403D01*
G03X42390Y-24640I1020J-4641D01*
G01X41121Y-25910D01*
X-16184D01*
Y-24756D01*
G03X-16684Y-22953I-3501J0D01*
G01Y-21047D01*
G03X-16184Y-19244I-3001J1803D01*
G01Y-16093D01*
G03X-16234Y-15504I-3501J-1D01*
G03X-16184Y-14915I-3451J590D01*
G01Y-11763D01*
G03X-16234Y-11174I-3501J-1D01*
G03X-16184Y-10586I-3451J590D01*
G01Y-7430D01*
G03X-16234Y-6842I-3501J-2D01*
G03X-16184Y-6253I-3451J590D01*
G01Y-3101D01*
G03X-16234Y-2512I-3501J-1D01*
G03X-16184Y-1924I-3451J590D01*
G01Y1230D01*
G03X-16234Y1819I-3501J-1D01*
G03X-16184Y2408I-3451J590D01*
G01Y5559D01*
G03X-16684Y7362I-3501J0D01*
G01Y9268D01*
G03X-16184Y11071I-3001J1803D01*
G01Y14222D01*
G03X-16234Y14811I-3501J-1D01*
G03X-16204Y15024I-3450J595D01*
G01X-16196Y15094D01*
X-16005Y15285D01*
X-10346Y9626D01*
X-10364Y9523D01*
G03X-10502Y8000I8364J-1526D01*
G03X6502I8502J0D01*
G03X2429Y15257I-8502J0D01*
G02X2637Y15998I209J341D01*
G01X6269D01*
X6292Y15993D01*
G03X7100Y15898I810J3407D01*
G01X10900D01*
G03X11708Y15993I-2J3502D01*
G01X11731Y15998D01*
X15050D01*
G03X17500Y14998I2450J2501D01*
G01X23721D01*
X25640Y13079D01*
G03X28145Y11579I4243J4244D01*
G03X31634Y8368I3489J290D01*
G01X35843D01*
G03X36640Y7310I4157J2302D01*
G01X48310Y-4360D01*
G03X51670Y-5752I3360J3359D01*
G01X53818D01*
G03X56500Y-7002I2682J2252D01*
G01X61500D01*
G03X65002Y-3500I0J3502D01*
G01Y2998D01*
X65512D01*
Y2780D01*
G03X65498Y2500I2988J-290D01*
G01Y-2500D01*
G03X68500Y-5502I3002J0D01*
G01X73500D01*
G03X76502Y-2500I0J3002D01*
G01Y2500D01*
G03X76296Y3592I-3002J-1D01*
G02X76578Y4127I372J145D01*
G03X78681Y5181I-1127J4873D01*
G03X80045Y4968I1366J4272D01*
G01X90207D01*
G03X94692Y9453I0J4485D01*
G01Y11776D01*
G03X94124Y13960I-4485J-1D01*
G03X94692Y16143I-3917J2185D01*
G01Y18468D01*
G03X93811Y21138I-4486J0D01*
G03X94192Y22838I-3604J1700D01*
G01Y25162D01*
G03X93811Y26861I-3985J-1D01*
G01Y26862D01*
G03X94692Y29532I-3605J2670D01*
G01Y31857D01*
G03X94124Y34040I-4485J-2D01*
G03X94692Y36224I-3917J2185D01*
G01Y38552D01*
G03X94623Y39333I-4485J-3D01*
G01X94605Y39436D01*
X104917Y49748D01*
G37*
G36*
G01X-2032Y-97752D02*
X7833D01*
G02X8220Y-98251I0J-400D01*
G03X7998Y-100000I6779J-1749D01*
G03X8587Y-102810I7002J1D01*
G02X8140Y-103363I-366J-161D01*
G03X6441Y-103191I-1701J-8330D01*
G03X1441Y-104817I0J-8502D01*
G03X-3559Y-103191I-5000J-6876D01*
G03X-5082Y-103329I3J-8502D01*
G01X-5185Y-103347D01*
X-7439Y-101093D01*
G02X-7298Y-100752I141J141D01*
G01X-7000D01*
G03X-3640Y-99360I0J4751D01*
G01X-2032Y-97752D01*
G37*
G36*
G01X22167D02*
X35780D01*
X41935Y-103906D01*
G02X41867Y-104526I-283J-283D01*
G03X41441Y-104817I4580J-7163D01*
G03X36441Y-103191I-5000J-6876D01*
G03X31441Y-104817I0J-8502D01*
G03X26441Y-103191I-5000J-6876D01*
G03X20278Y-105836I0J-8503D01*
G03X19967Y-105644I-3832J-5860D01*
G02X19890Y-105012I202J345D01*
G03X22002Y-100000I-4891J5012D01*
G03X21780Y-98251I-7001J0D01*
G02X22167Y-97752I387J99D01*
G37*
G36*
G01D02*
X35780D01*
X41935Y-103906D01*
G02X41867Y-104526I-283J-283D01*
G03X41441Y-104817I4580J-7163D01*
G03X36441Y-103191I-5000J-6876D01*
G03X31441Y-104817I0J-8502D01*
G03X26441Y-103191I-5000J-6876D01*
G03X20278Y-105836I0J-8503D01*
G03X19967Y-105644I-3832J-5860D01*
G02X19890Y-105012I202J345D01*
G03X22002Y-100000I-4891J5012D01*
G03X21780Y-98251I-7001J0D01*
G02X22167Y-97752I387J99D01*
G37*
G36*
G01X-2032D02*
X7833D01*
G02X8220Y-98251I0J-400D01*
G03X7998Y-100000I6779J-1749D01*
G03X8587Y-102810I7002J1D01*
G02X8140Y-103363I-366J-161D01*
G03X6441Y-103191I-1701J-8330D01*
G03X1441Y-104817I0J-8502D01*
G03X-3559Y-103191I-5000J-6876D01*
G03X-5082Y-103329I3J-8502D01*
G01X-5185Y-103347D01*
X-7439Y-101093D01*
G02X-7298Y-100752I141J141D01*
G01X-7000D01*
G03X-3640Y-99360I0J4751D01*
G01X-2032Y-97752D01*
G37*
G36*
G01X22167D02*
X35780D01*
X41935Y-103906D01*
G02X41867Y-104526I-283J-283D01*
G03X41441Y-104817I4580J-7163D01*
G03X36441Y-103191I-5000J-6876D01*
G03X31441Y-104817I0J-8502D01*
G03X26441Y-103191I-5000J-6876D01*
G03X20278Y-105836I0J-8503D01*
G03X19967Y-105644I-3832J-5860D01*
G02X19890Y-105012I202J345D01*
G03X22002Y-100000I-4891J5012D01*
G03X21780Y-98251I-7001J0D01*
G02X22167Y-97752I387J99D01*
G37*
G36*
G01X9106Y-39744D02*
X20835D01*
G02X21222Y-40244I0J-400D01*
G03X20998Y-42000I6778J-1757D01*
G03X21537Y-44695I7002J-1D01*
G02X21168Y-45248I-369J-153D01*
G01X13645D01*
X8823Y-40426D01*
G02X9106Y-39744I283J282D01*
G37*
G36*
G01D02*
X20835D01*
G02X21222Y-40244I0J-400D01*
G03X20998Y-42000I6778J-1757D01*
G03X21537Y-44695I7002J-1D01*
G02X21168Y-45248I-369J-153D01*
G01X13645D01*
X8823Y-40426D01*
G02X9106Y-39744I283J282D01*
G37*
G36*
G01D02*
X20835D01*
G02X21222Y-40244I0J-400D01*
G03X20998Y-42000I6778J-1757D01*
G03X21537Y-44695I7002J-1D01*
G02X21168Y-45248I-369J-153D01*
G01X13645D01*
X8823Y-40426D01*
G02X9106Y-39744I283J282D01*
G37*
G36*
G01X35165D02*
X44597D01*
X44614Y-39925D01*
G03X45213Y-41581I3486J325D01*
G03X45098Y-42400I2886J-823D01*
G01Y-45248D01*
X34832D01*
G02X34463Y-44695I0J400D01*
G03X35002Y-42000I-6463J2694D01*
G03X34778Y-40244I-7002J-1D01*
G02X35165Y-39744I387J100D01*
G37*
G36*
G01D02*
X44597D01*
X44614Y-39925D01*
G03X45213Y-41581I3486J325D01*
G03X45098Y-42400I2886J-823D01*
G01Y-45248D01*
X34832D01*
G02X34463Y-44695I0J400D01*
G03X35002Y-42000I-6463J2694D01*
G03X34778Y-40244I-7002J-1D01*
G02X35165Y-39744I387J100D01*
G37*
G36*
G01D02*
X44597D01*
X44614Y-39925D01*
G03X45213Y-41581I3486J325D01*
G03X45098Y-42400I2886J-823D01*
G01Y-45248D01*
X34832D01*
G02X34463Y-44695I0J400D01*
G03X35002Y-42000I-6463J2694D01*
G03X34778Y-40244I-7002J-1D01*
G02X35165Y-39744I387J100D01*
G37*
G36*
G01X80102Y-94752D02*
X89609D01*
G02X89978Y-95305I0J-400D01*
G03X89439Y-98000I6463J-2694D01*
G03X93780Y-104477I7003J0D01*
G02Y-105216I-152J-370D01*
G03X92604Y-105836I2663J-6476D01*
G03X86441Y-103191I-6163J-5858D01*
G03X81441Y-104817I0J-8502D01*
G03X76441Y-103191I-5000J-6876D01*
G03X71441Y-104817I0J-8502D01*
G03X71015Y-104526I-5006J-6872D01*
G02X70947Y-103906I215J337D01*
G01X80102Y-94752D01*
G37*
G36*
G01D02*
X89609D01*
G02X89978Y-95305I0J-400D01*
G03X89439Y-98000I6463J-2694D01*
G03X93780Y-104477I7003J0D01*
G02Y-105216I-152J-370D01*
G03X92604Y-105836I2663J-6476D01*
G03X86441Y-103191I-6163J-5858D01*
G03X81441Y-104817I0J-8502D01*
G03X76441Y-103191I-5000J-6876D01*
G03X71441Y-104817I0J-8502D01*
G03X71015Y-104526I-5006J-6872D01*
G02X70947Y-103906I215J337D01*
G01X80102Y-94752D01*
G37*
G36*
G01D02*
X89609D01*
G02X89978Y-95305I0J-400D01*
G03X89439Y-98000I6463J-2694D01*
G03X93780Y-104477I7003J0D01*
G02Y-105216I-152J-370D01*
G03X92604Y-105836I2663J-6476D01*
G03X86441Y-103191I-6163J-5858D01*
G03X81441Y-104817I0J-8502D01*
G03X76441Y-103191I-5000J-6876D01*
G03X71441Y-104817I0J-8502D01*
G03X71015Y-104526I-5006J-6872D01*
G02X70947Y-103906I215J337D01*
G01X80102Y-94752D01*
G37*
G36*
G01X163999Y-127393D02*
Y-140315D01*
X95018D01*
G02X94881Y-139969I0J200D01*
G03X94994Y-139860I-3242J3474D01*
G01X104815Y-130039D01*
X104918Y-130057D01*
G03X106441Y-130195I1526J8364D01*
G03X109336Y-129687I0J8503D01*
G02X109849Y-130198I137J-376D01*
G03X109439Y-132559I6593J-2361D01*
G03X123443I7002J0D01*
G03X123033Y-130198I-7003J0D01*
G02X123546Y-129687I376J135D01*
G03X126441Y-130195I2895J7995D01*
G03X131441Y-128569I0J8502D01*
G03X136441Y-130195I5000J6876D01*
G03X137361Y-130145I-1J8502D01*
G01X137456Y-130135D01*
X140035Y-132713D01*
G03X143748Y-134252I3714J3712D01*
G01X154000D01*
G03X157713Y-132713I-1J5251D01*
G01X163316Y-127111D01*
G02X163999Y-127393I283J-282D01*
G37*
G36*
G01D02*
Y-140315D01*
X95018D01*
G02X94881Y-139969I0J200D01*
G03X94994Y-139860I-3242J3474D01*
G01X104815Y-130039D01*
X104918Y-130057D01*
G03X106441Y-130195I1526J8364D01*
G03X109336Y-129687I0J8503D01*
G02X109849Y-130198I137J-376D01*
G03X109439Y-132559I6593J-2361D01*
G03X123443I7002J0D01*
G03X123033Y-130198I-7003J0D01*
G02X123546Y-129687I376J135D01*
G03X126441Y-130195I2895J7995D01*
G03X131441Y-128569I0J8502D01*
G03X136441Y-130195I5000J6876D01*
G03X137361Y-130145I-1J8502D01*
G01X137456Y-130135D01*
X140035Y-132713D01*
G03X143748Y-134252I3714J3712D01*
G01X154000D01*
G03X157713Y-132713I-1J5251D01*
G01X163316Y-127111D01*
G02X163999Y-127393I283J-282D01*
G37*
G36*
G01D02*
Y-140315D01*
X95018D01*
G02X94881Y-139969I0J200D01*
G03X94994Y-139860I-3242J3474D01*
G01X104815Y-130039D01*
X104918Y-130057D01*
G03X106441Y-130195I1526J8364D01*
G03X109336Y-129687I0J8503D01*
G02X109849Y-130198I137J-376D01*
G03X109439Y-132559I6593J-2361D01*
G03X123443I7002J0D01*
G03X123033Y-130198I-7003J0D01*
G02X123546Y-129687I376J135D01*
G03X126441Y-130195I2895J7995D01*
G03X131441Y-128569I0J8502D01*
G03X136441Y-130195I5000J6876D01*
G03X137361Y-130145I-1J8502D01*
G01X137456Y-130135D01*
X140035Y-132713D01*
G03X143748Y-134252I3714J3712D01*
G01X154000D01*
G03X157713Y-132713I-1J5251D01*
G01X163316Y-127111D01*
G02X163999Y-127393I283J-282D01*
G37*
G36*
G01X103273Y-94752D02*
X112780D01*
X121935Y-103906D01*
G02X121867Y-104526I-283J-283D01*
G03X121441Y-104817I4580J-7163D01*
G03X116441Y-103191I-5000J-6876D01*
G03X111441Y-104817I0J-8502D01*
G03X106441Y-103191I-5000J-6876D01*
G03X100278Y-105836I0J-8503D01*
G03X99102Y-105216I-3839J-5856D01*
G02Y-104477I152J370D01*
G03X103443Y-98000I-2662J6477D01*
G03X102904Y-95305I-7002J1D01*
G02X103273Y-94752I369J153D01*
G37*
G36*
G01D02*
X112780D01*
X121935Y-103906D01*
G02X121867Y-104526I-283J-283D01*
G03X121441Y-104817I4580J-7163D01*
G03X116441Y-103191I-5000J-6876D01*
G03X111441Y-104817I0J-8502D01*
G03X106441Y-103191I-5000J-6876D01*
G03X100278Y-105836I0J-8503D01*
G03X99102Y-105216I-3839J-5856D01*
G02Y-104477I152J370D01*
G03X103443Y-98000I-2662J6477D01*
G03X102904Y-95305I-7002J1D01*
G02X103273Y-94752I369J153D01*
G37*
G36*
G01D02*
X112780D01*
X121935Y-103906D01*
G02X121867Y-104526I-283J-283D01*
G03X121441Y-104817I4580J-7163D01*
G03X116441Y-103191I-5000J-6876D01*
G03X111441Y-104817I0J-8502D01*
G03X106441Y-103191I-5000J-6876D01*
G03X100278Y-105836I0J-8503D01*
G03X99102Y-105216I-3839J-5856D01*
G02Y-104477I152J370D01*
G03X103443Y-98000I-2662J6477D01*
G03X102904Y-95305I-7002J1D01*
G02X103273Y-94752I369J153D01*
G37*
%LPC*%
G75*
G36*
G01X28632Y48130D02*
G02X31634Y51132I3002J0D01*
G01X48366D01*
G02X51368Y48130I0J-3002D01*
G01Y37224D01*
G02X48366Y34222I-3002J0D01*
G01X31634D01*
G02X28632Y37224I0J3002D01*
G01Y48130D01*
G37*
G36*
G01X85384Y-68594D02*
G02X88386Y-65592I3002J0D01*
G01X101772D01*
G02X104774Y-68594I0J-3002D01*
G01Y-71154D01*
G02X101772Y-74156I-3002J0D01*
G01X88386D01*
G02X85384Y-71154I0J3002D01*
G01Y-68594D01*
G37*
G36*
G01X129912Y-66094D02*
G02X132914Y-63093I3002J-1D01*
G01X140394D01*
G02X143396Y-66094I0J-3002D01*
G01Y-72394D01*
G02X140394Y-75395I-3002J1D01*
G01X132914D01*
G02X129912Y-72394I0J3002D01*
G01Y-66094D01*
G37*
G36*
G01X129794Y-54124D02*
G02X132795Y-51124I3001J-1D01*
G01X135945D01*
G02X138946Y-54126I-1J-3002D01*
G01Y-56254D01*
G02X135945Y-59254I-3001J1D01*
G01X132795D01*
G02X129794Y-56252I1J3002D01*
G01Y-54124D01*
G37*
G36*
G01Y-34124D02*
G02X132795Y-31124I3001J-1D01*
G01X135945D01*
G02X138946Y-34126I-1J-3002D01*
G01Y-36254D01*
G02X135945Y-39254I-3001J1D01*
G01X132795D01*
G02X129794Y-36252I1J3002D01*
G01Y-34124D01*
G37*
G36*
G01X85384Y-19224D02*
G02X88386Y-16222I3002J0D01*
G01X101772D01*
G02X104774Y-19224I0J-3002D01*
G01Y-21784D01*
G02X101772Y-24786I-3002J0D01*
G01X88386D01*
G02X85384Y-21784I0J3002D01*
G01Y-19224D01*
G37*
G36*
G01X129912Y-18024D02*
G02X132914Y-15022I3002J0D01*
G01X140394D01*
G02X143396Y-18024I0J-3002D01*
G01Y-24322D01*
G02X140394Y-27324I-3002J0D01*
G01X132914D01*
G02X129912Y-24322I0J3002D01*
G01Y-18024D01*
G37*
G54D43*
X112047Y-44441D03*
G54D41*
X-150000Y-93000D03*
X-155909Y-29091D03*
X8000Y50000D03*
X130000Y-86000D03*
X33000Y-71000D03*
X-7000Y-14000D03*
G54D42*
X-78126Y76220D03*
X150220D03*
%LPD*%
G75*
G54D10*
X-164000Y-49000D03*
X-155909Y-29091D03*
X-150000Y-93000D03*
X-96000Y-119000D03*
X-95000Y-89000D03*
X-114000Y-56000D03*
X-100000Y-40000D03*
X-121000Y-19000D03*
Y-6000D03*
X-102000Y-17000D03*
X-53559Y-121693D03*
X-43559D03*
X-53559Y-111693D03*
X-43559D03*
X-64000Y38000D03*
X-33559Y-121693D03*
X-23559D03*
X-13559D03*
X-33559Y-111693D03*
X-23559D03*
X-13559D03*
X-28346Y-87000D03*
X-7000Y-14000D03*
X-3559Y-121693D03*
X6441D03*
X16441D03*
X-3559Y-111693D03*
X6441D03*
X16441D03*
X15000Y-100000D03*
X-2000Y8000D03*
X8000Y50000D03*
X26441Y-121693D03*
X36441D03*
X46441D03*
X26441Y-111693D03*
X36441D03*
X46441D03*
X33000Y-71000D03*
X28000Y-42000D03*
X56441Y-121693D03*
X66441D03*
X76441D03*
X56441Y-111693D03*
X66441D03*
X76441D03*
X69000Y54000D03*
X86441Y-121693D03*
X96441D03*
X106441D03*
X86441Y-111693D03*
X96441D03*
X106441D03*
X96441Y-98000D03*
X116441Y-121693D03*
X126441D03*
X136441D03*
X116441Y-132559D03*
Y-111693D03*
X126441D03*
X130000Y-86000D03*
G54D11*
X-130161Y-78417D03*
X-132720D03*
X-135280D03*
X-137839D03*
X-140398D03*
X-142957D03*
X-125043D03*
X-127602D03*
G54D20*
X-77362Y-78362D03*
G54D12*
X-152091Y-61000D03*
X-155909D03*
X-152091Y-55000D03*
X-155909D03*
X-152091Y-43000D03*
X-155909D03*
X-152091Y-49000D03*
X-155909D03*
X-88091Y-52000D03*
X-91909D03*
X-88091Y-13000D03*
X-91909D03*
X-88091Y-18000D03*
X-91909D03*
X-88091Y-22000D03*
X-91909D03*
X-88091Y-31000D03*
X-91909D03*
X-88091Y-9000D03*
X-91909D03*
X-88091Y-26000D03*
X-91909D03*
X-88091Y-4000D03*
X-91909D03*
X-88091Y0D03*
X-91909D03*
G54D30*
X69000Y42000D03*
X75000D03*
G54D21*
X-70669Y-62354D03*
Y-55268D03*
Y-48181D03*
Y-34008D03*
Y-9992D03*
Y4181D03*
Y11268D03*
Y18354D03*
X-45866Y-62354D03*
X-54134D03*
X-62402D03*
X-45866Y-55268D03*
X-54134D03*
X-62402D03*
X-45866Y11268D03*
X-54134D03*
X-62402D03*
X-45866Y18354D03*
X-54134D03*
X-62402D03*
X-29331Y-62354D03*
X-37598D03*
X-29331Y-55268D03*
X-37598D03*
X-29331Y-48181D03*
Y-34008D03*
Y-9992D03*
Y4181D03*
Y11268D03*
X-37598D03*
X-29331Y18354D03*
X-37598D03*
G54D40*
G01X85128Y37386D02*
X102742Y55000D01*
X142000D01*
X160000Y37000D01*
Y-123000D01*
X154000Y-129000D01*
X143748D01*
X136441Y-121693D01*
G01X85128Y30693D02*
Y37386D01*
G54D13*
X-142957Y-55583D03*
X-140398D03*
X-137839D03*
X-135280D03*
X-132720D03*
X-130161D03*
X-127602D03*
G54D31*
X91142Y-69874D03*
X99016D03*
Y-20504D03*
X91142D03*
G54D22*
X-46000Y-79091D03*
Y-82909D03*
X-40000Y-79091D03*
Y-82909D03*
X-64000Y-79091D03*
Y-82909D03*
X-58000Y-79091D03*
Y-82909D03*
X-37000Y39909D03*
Y36091D03*
X68000Y-46091D03*
Y-49909D03*
X70000Y-26091D03*
Y-29909D03*
G54D23*
X-67323Y25047D03*
X-58661D03*
G54D14*
X-146000Y-6000D03*
X-137000D03*
X-105000Y-67000D03*
X-114000D03*
X-105000Y-79000D03*
X-114000D03*
X-28000Y47000D03*
X-37000D03*
G54D32*
X136441Y-111693D03*
G54D33*
X136654Y-69244D03*
Y-21173D03*
G54D15*
X-137000Y8000D03*
Y17000D03*
X20000Y21000D03*
Y30000D03*
X50000Y-19000D03*
Y-28000D03*
X71000Y0D03*
Y9000D03*
X59000Y8000D03*
Y-1000D03*
G54D24*
X-47000Y57000D03*
Y77000D03*
X-37000Y67000D03*
X-27000Y57000D03*
Y77000D03*
G54D16*
X-125043Y-55583D03*
G54D34*
X134370Y-35189D03*
Y-55189D03*
G54D25*
X-12000Y21000D03*
Y27000D03*
X9000Y21000D03*
X-2000D03*
X9000Y27000D03*
X-2000D03*
X50000Y-44000D03*
Y-38000D03*
Y-62000D03*
Y-56000D03*
X60000Y-44000D03*
Y-50000D03*
Y-24000D03*
Y-30000D03*
X69000Y24000D03*
Y18000D03*
G54D35*
X126033Y24000D03*
G54D26*
X40000Y17323D03*
Y42677D03*
G54D17*
X-78126Y-116693D03*
Y76220D03*
X150220Y-116693D03*
Y76220D03*
G54D36*
G01X-22638Y12646D02*
Y16976D01*
G01Y21307D02*
Y16976D01*
G01Y21307D02*
X-17207D01*
X-16900Y21000D01*
X-12000D01*
G01X-2000D02*
X-12000D01*
G01X9000D02*
X-2000D01*
G01X20000D02*
X9000D01*
G01X85128Y10614D02*
X77065D01*
X75451Y9000D01*
X71000D01*
G01D02*
X66500D01*
X65500Y8000D01*
X59000D01*
G01X75000Y42000D02*
Y38900D01*
X76514Y37386D01*
X85128D01*
G54D27*
X82598Y-54343D03*
Y-49343D03*
Y-44343D03*
Y-39343D03*
Y-34343D03*
Y-29343D03*
G54D18*
X-71654Y-69047D03*
Y25047D03*
X-41339Y-69047D03*
X-45669D03*
X-50000D03*
X-54331D03*
X-58661D03*
X-62992D03*
X-67323D03*
X-62992Y25047D03*
X-54331D03*
X-50000D03*
X-45669D03*
X-41339D03*
X-28346Y-69047D03*
X-32677D03*
X-37008D03*
Y25047D03*
X-32677D03*
X-28346D03*
G54D37*
G01X20000Y21000D02*
X26207D01*
X29884Y17323D01*
X40000D01*
G01D02*
X51366D01*
X52043Y18000D01*
X69000D01*
G01D02*
X75665D01*
X76358Y17307D01*
X85128D01*
G01X126441Y-121693D02*
X136441D01*
G54D19*
X-77362Y-65307D03*
Y-60976D03*
Y-56646D03*
Y-52315D03*
Y-47984D03*
Y-43654D03*
Y-39323D03*
Y-34992D03*
Y-30661D03*
Y-26331D03*
Y-22000D03*
Y-17669D03*
Y-13339D03*
Y-9008D03*
Y-4677D03*
Y-346D03*
Y3984D03*
Y8315D03*
Y12646D03*
Y16976D03*
Y21307D03*
X-22638Y-65307D03*
Y-34992D03*
Y-39323D03*
Y-43654D03*
Y-47984D03*
Y-52315D03*
Y-56646D03*
Y-60976D03*
Y-4677D03*
Y-9008D03*
Y-13339D03*
Y-17669D03*
Y-22000D03*
Y-26331D03*
Y-30661D03*
Y21307D03*
Y16976D03*
Y12646D03*
Y8315D03*
Y3984D03*
Y-346D03*
G54D28*
X68000Y-59909D03*
Y-56091D03*
Y-41909D03*
Y-38091D03*
G54D38*
G01X-137839Y-78417D02*
Y-97111D01*
G01X-132001Y-97999D02*
X-135280Y-94720D01*
Y-78417D01*
G01X-142000Y-71000D02*
X-131411D01*
X-127602Y-74809D01*
Y-78417D01*
G01X-142957D02*
Y-89721D01*
G01X-141839Y-90839D02*
X-142957Y-89721D01*
G01X-140398Y-78417D02*
Y-89398D01*
X-141839Y-90839D01*
G01D02*
X-144000Y-93000D01*
X-150000D01*
G01X-152091Y-61000D02*
X-147091Y-66000D01*
X-129000D01*
X-125043Y-62043D01*
Y-55583D01*
G01X-125000Y-89000D02*
X-130161Y-83839D01*
Y-78417D01*
G01X-124000Y-97000D02*
X-132720Y-88280D01*
Y-78417D01*
G01X-137839Y-37839D02*
Y-55583D01*
G01X-135280D02*
Y-41280D01*
X-125000Y-31000D01*
G01X-128000Y-43000D02*
X-128281D01*
X-132720Y-47439D01*
Y-55583D01*
G01X-125928Y-48000D02*
X-130161Y-52233D01*
Y-55583D01*
G01X-127602D02*
Y-59191D01*
X-128602Y-60191D01*
X-144809D01*
X-150000Y-55000D01*
X-152091D01*
G01Y-43000D02*
X-146000D01*
X-140398Y-48602D01*
Y-55583D01*
G01X-152091Y-49000D02*
X-149540D01*
X-142957Y-55583D01*
G01X-120000Y-85000D02*
X-125000D01*
X-127602Y-82398D01*
Y-78417D01*
G01X-114000Y-67000D02*
X-117700D01*
X-125043Y-74343D01*
Y-78417D01*
G01X-91909Y-18000D02*
Y-15495D01*
G01D02*
Y-13000D01*
G54D29*
X85128Y10614D03*
Y17307D03*
Y24000D03*
Y30693D03*
Y37386D03*
G54D39*
G01X-155909Y-43000D02*
X-161160D01*
X-161410Y-42750D01*
X-166750D01*
X-170750Y-46750D01*
Y-51090D01*
X-166590Y-55250D01*
X-156159D01*
X-155909Y-55000D01*
G01Y-49000D02*
X-164000D01*
G01X-161202Y-34384D02*
X-155909Y-29091D01*
G01X-161202Y-23798D02*
X-155909Y-29091D01*
G01X-137839Y-97111D02*
X-98450Y-136500D01*
X91634D01*
X106441Y-121693D01*
G01X96441D02*
X85134Y-133000D01*
X-97000D01*
X-132001Y-97999D01*
G01X-155293Y-98293D02*
X-150000Y-93000D01*
G01D02*
X-144707Y-98293D01*
G01X-155909Y-61000D02*
Y-66091D01*
X-151000Y-71000D01*
X-142000D01*
G01X-150000Y-93000D02*
X-144707Y-87707D01*
G01X-155293D02*
X-150000Y-93000D01*
G01X-3559Y-111693D02*
X-15002Y-100250D01*
X-110606D01*
X-121856Y-89000D01*
X-125000D01*
G01X-13559Y-111693D02*
X-21502Y-103750D01*
X-117250D01*
X-124000Y-97000D01*
G01X-155909Y-61000D02*
Y-55000D01*
G01X-91909Y-26000D02*
X-126000D01*
X-137839Y-37839D01*
G01X-125000Y-31000D02*
X-91909D01*
G01X-64000Y-82909D02*
X-74484D01*
X-75187Y-83612D01*
X-79537D01*
X-86999Y-76150D01*
Y-65001D01*
X-109000Y-43000D01*
X-128000D01*
G01X-58000Y-82909D02*
X-58098D01*
X-62301Y-87112D01*
X-85960D01*
X-92000Y-81072D01*
Y-67072D01*
X-111072Y-48000D01*
X-125928D01*
G01X-155909Y-29091D02*
X-150616Y-34384D01*
G01X-137000Y8000D02*
Y-6000D01*
G01D02*
X-121000D01*
G01X-146000D02*
Y-19182D01*
G01D02*
X-155909Y-29091D01*
G01X-137000Y17000D02*
Y20700D01*
X-135553Y22147D01*
X-90976D01*
G01X-101293Y-113707D02*
X-96000Y-119000D01*
G01X-114000Y-79000D02*
X-120000Y-85000D01*
G01X-114000Y-79000D02*
X-97000Y-96000D01*
X-7000D01*
X-4000Y-93000D01*
X37748D01*
X56441Y-111693D01*
G01X-114000Y-67000D02*
Y-56000D01*
G01X-105000Y-79000D02*
X-95000Y-89000D01*
G01X-105000Y-67000D02*
Y-79000D01*
G01Y-67000D02*
X-99000Y-73000D01*
G01X-105000Y-79000D02*
X-99000Y-73000D01*
G01X-100000Y-40000D02*
X-99323Y-39323D01*
X-77362D01*
G01X-121000Y-19000D02*
X-108000Y-6000D01*
Y8000D01*
X-103750D01*
X-103435Y8315D01*
X-77362D01*
G01X-102000Y-2903D02*
Y-6000D01*
G01X-91909Y-15495D02*
X-100495D01*
X-102000Y-17000D01*
G01Y-6000D02*
X-100000Y-4000D01*
G01X-102000Y-17000D02*
Y-6000D01*
G01X-110000Y-18000D02*
X-109000Y-17000D01*
X-102000D01*
G01Y-2903D02*
X-95113Y3984D01*
X-77362D01*
G01X-113000Y17000D02*
X-118000D01*
G01X-113000D02*
X-120000Y10000D01*
G01X-108000Y17000D02*
X-113000D01*
G01X-99354D02*
X-95000Y12646D01*
G01X-101000Y17000D02*
X-99354D01*
G01X-108000D02*
X-101000D01*
G01X-95000Y12646D02*
X-96646D01*
X-101000Y17000D01*
G01X-96000Y-119000D02*
X-87000Y-128000D01*
G01D02*
X-67003D01*
G01X-96000Y-119000D02*
X-90707Y-113707D01*
G01X-77362Y-78362D02*
Y-71000D01*
G01X-71654Y-69047D02*
X-75394Y-65307D01*
X-77362D01*
G01Y-71000D02*
Y-65307D01*
G01X-71654Y-64344D02*
Y-63339D01*
X-70669Y-62354D01*
G01X-77362Y-71000D02*
X-81000D01*
G01X-70000Y-76000D02*
X-75000D01*
X-77362Y-78362D01*
G01X-71654Y-69047D02*
Y-64344D01*
G01D02*
X-76399D01*
X-77362Y-65307D01*
G01X-70669Y-62354D02*
X-72047Y-60976D01*
X-77362D01*
G01X-70669Y-62354D02*
X-62402D01*
G01Y-55268D02*
X-70669D01*
G01D02*
Y-48181D01*
G01Y-55268D02*
Y-62354D01*
G01Y-34008D02*
X-71653Y-34992D01*
X-77362D01*
G01X-85000Y-59000D02*
X-83024Y-60976D01*
X-77362D01*
G01X-70669Y-39376D02*
Y-34008D01*
G01D02*
Y-28640D01*
G01Y-34008D02*
X-65301D01*
G01X-70669Y-48181D02*
Y-42813D01*
G01Y-48181D02*
X-65301D01*
G01X-77362Y-52315D02*
X-87776D01*
X-88091Y-52000D01*
G01X-77362Y-13339D02*
X-87752D01*
X-88091Y-13000D01*
G01X-77362Y-17669D02*
X-87760D01*
X-88091Y-18000D01*
G01X-77362Y-22000D02*
X-88091D01*
G01Y-26000D02*
X-87760Y-26331D01*
X-77362D01*
G01X-88091Y-31000D02*
X-87752Y-30661D01*
X-77362D01*
G01Y-9008D02*
X-88083D01*
X-88091Y-9000D01*
G01Y-4000D02*
X-87414Y-4677D01*
X-77362D01*
G01X-70669Y-15360D02*
Y-9992D01*
G01D02*
Y-4624D01*
G01Y-9992D02*
X-65301D01*
G01X-64000Y38000D02*
X-75123D01*
X-90976Y22147D01*
G01D02*
X-85805Y16976D01*
X-77362D01*
G01Y-346D02*
X-87745D01*
X-88091Y0D01*
G01X-70669Y4181D02*
X-70866Y3984D01*
X-77362D01*
G01X-70669Y11268D02*
X-72047Y12646D01*
X-77362D01*
G01X-62402Y11268D02*
X-70669D01*
G01D02*
Y4181D01*
G01X-67323Y25047D02*
X-71654D01*
G01X-70669Y18354D02*
X-71654Y19339D01*
Y25047D01*
G01X-70669Y11268D02*
Y18354D01*
G01X-71654Y25047D02*
X-77362D01*
G01D02*
Y26638D01*
G01X-67323Y18354D02*
X-70669D01*
G01X-77362Y12646D02*
X-95000D01*
G01X-77362Y25047D02*
Y21307D01*
G01X-70669Y-1187D02*
Y4181D01*
G01D02*
X-65301D01*
G01X-67003Y-128000D02*
X-61899Y-122896D01*
G01D02*
X-55602Y-129193D01*
X-30561D01*
X-23559Y-122191D01*
G01X-61899Y-120033D02*
X-53559Y-111693D01*
G01X-61899Y-120033D02*
Y-122896D01*
G01X-45669Y-69047D02*
Y-78760D01*
X-46000Y-79091D01*
G01X-41339Y-69047D02*
Y-77752D01*
X-40000Y-79091D01*
G01X-62992Y-69047D02*
Y-78083D01*
X-64000Y-79091D01*
G01X-58661Y-69047D02*
Y-78430D01*
X-58000Y-79091D01*
G01X-45866Y-55268D02*
Y-47134D01*
G01X-54134Y-55268D02*
Y-46134D01*
G01X-62402Y-55268D02*
Y-46402D01*
G01X-45866Y-62354D02*
X-37598D01*
G01X-54134D02*
X-45866D01*
G01X-62402D02*
X-54134D01*
G01Y-55268D02*
X-62402D01*
G01X-45866D02*
X-54134D01*
G01X-37598D02*
X-45866D01*
G01X-62402Y-62354D02*
Y-55268D01*
G01X-54134D02*
Y-62354D01*
G01X-45866D02*
Y-55268D01*
G01X-62402Y11268D02*
Y4598D01*
G01X-54331Y25047D02*
X-58661D01*
G01X-50000D02*
X-54331D01*
G01X-45669D02*
X-50000D01*
G01X-41339D02*
X-45669D01*
G01X-54134Y18354D02*
X-54331Y18551D01*
Y25047D01*
G01X-45866Y18354D02*
X-45669Y18551D01*
Y25047D01*
G01X-62402Y18354D02*
X-67323D01*
G01X-54134D02*
X-58661Y22881D01*
Y25047D01*
G01X-54134Y18354D02*
Y11268D01*
G01D02*
X-62402D01*
G01X-54134D02*
Y1134D01*
G01X-45866Y11268D02*
X-54134D01*
G01X-37598D02*
X-45866D01*
G01D02*
Y18354D01*
G01D02*
X-54134D01*
G01X-45866D02*
X-37598D01*
G01X-45866Y11268D02*
Y2134D01*
G01X-62402Y18354D02*
Y11268D01*
G01X-54134Y18354D02*
X-62402D01*
G01X-67323D02*
Y25047D01*
G01X-47000Y49506D02*
Y57000D01*
G01Y77000D02*
Y57000D01*
G01X-27000Y77000D02*
X-47000D01*
G01X-54494Y57000D02*
X-47000D01*
G01Y77000D02*
Y84494D01*
G01X-54494Y77000D02*
X-47000D01*
G01X-23559Y-122191D02*
X-17807Y-127943D01*
X-9809D01*
X-3559Y-121693D01*
G01X-23559D02*
Y-122191D01*
G01X-28346Y-69047D02*
Y-81250D01*
G01X-37598Y-62354D02*
X-37008Y-62944D01*
Y-69047D01*
G01X-26017Y-65307D02*
Y-66718D01*
X-28346Y-69047D01*
G01Y-64344D02*
Y-63339D01*
X-29331Y-62354D01*
G01X-28346Y-81250D02*
Y-87000D01*
G01X-22638Y-65307D02*
X-26017D01*
G01X-28346Y-81250D02*
X-37008Y-72588D01*
Y-69047D01*
G01X-26017Y-65307D02*
X-26980Y-64344D01*
X-28346D01*
G01D02*
Y-69047D01*
G01Y-87000D02*
X-23053Y-81707D01*
G01X-33639D02*
X-28346Y-87000D01*
G01X-22638Y-70084D02*
Y-65307D01*
G01D02*
X-16483D01*
G01X-37598Y-55268D02*
Y-46402D01*
G01X-29331Y-55268D02*
Y-62354D01*
G01Y-55268D02*
Y-48181D01*
G01Y-55268D02*
X-37598D01*
G01D02*
Y-62354D01*
G01D02*
X-29331D01*
G01Y-39376D02*
Y-34008D01*
G01D02*
Y-28640D01*
G01X-34699Y-34008D02*
X-29331D01*
G01Y-48181D02*
Y-42813D01*
G01X-34699Y-48181D02*
X-29331D01*
G01X-22638Y-43654D02*
X-2000D01*
X10346Y-56000D01*
X50000D01*
G01X-22638Y-39323D02*
X1000D01*
X11677Y-50000D01*
X60000D01*
G01X-22638Y-34992D02*
X49792D01*
X50000Y-35200D01*
Y-38000D01*
G01X-7000Y-14000D02*
X-15000Y-22000D01*
G01D02*
X-22638D01*
G01X-12293Y-8707D02*
X-7000Y-14000D01*
G01X-29331Y-15360D02*
Y-9992D01*
G01D02*
Y-4624D01*
G01X-34699Y-9992D02*
X-29331D01*
G01X50000Y-28000D02*
X45750D01*
X43089Y-30661D01*
X-22638D01*
G01X-2000Y8000D02*
X-15307Y21307D01*
X-22638D01*
G01X-29331Y18354D02*
X-28346Y19339D01*
Y25047D01*
G01D02*
X-32677D01*
G01X-29331Y11268D02*
Y18354D01*
G01X-37598D02*
X-33247D01*
G01X-37598Y11268D02*
Y18354D01*
G01Y11268D02*
X-29331D01*
G01X-37598D02*
Y3598D01*
G01X-29331Y4181D02*
Y7809D01*
G01X-25984Y8315D02*
X-26378D01*
X-29331Y11268D01*
G01Y7809D02*
Y11268D01*
G01X-33247Y18354D02*
X-29331D01*
G01X-7000Y-3120D02*
X-18435Y8315D01*
X-22638D01*
G01X-29331Y-1187D02*
Y4181D01*
G01X-34699D02*
X-29331D01*
G01Y7809D02*
X-25984D01*
Y8315D01*
G01D02*
X-22638D01*
G01X-33247Y18354D02*
Y21244D01*
X-32677Y21814D01*
Y25047D01*
G01X-37008D02*
Y36083D01*
X-37000Y36091D01*
G01X-28000Y47000D02*
X-31701Y50701D01*
Y52299D01*
X-27000Y57000D01*
G01X-12000Y27000D02*
Y31802D01*
G01X-17102Y27000D02*
X-12000D01*
G01X-28000Y41298D02*
Y47000D01*
G01D02*
X-22298D01*
G01X-37000Y39909D02*
Y47000D01*
G01D02*
Y67000D01*
G01X-27000Y57000D02*
Y77000D01*
G01D02*
Y84494D01*
G01Y77000D02*
X-19506D01*
G01X36441Y-121693D02*
X29627Y-128507D01*
X3255D01*
X-3559Y-121693D01*
G01X20119Y-105119D02*
X15000Y-100000D01*
G01X20119Y-105119D02*
Y-108015D01*
X16441Y-111693D01*
G01X7768Y-98232D02*
X4000Y-102000D01*
G01X15000Y-100000D02*
X27000D01*
G01X7768Y-98232D02*
X13232D01*
X15000Y-100000D01*
G01X28000Y-42000D02*
X16000D01*
G01X-7000Y-3120D02*
Y-14000D01*
G01D02*
X-1707Y-19293D01*
G01X40000Y42677D02*
X15323D01*
G01D02*
X8000Y50000D01*
G01X20000Y30000D02*
Y35702D01*
G01X14298Y30000D02*
X20000D01*
G01D02*
X25702D01*
G01X9000Y27000D02*
Y31802D01*
G01X3898Y27000D02*
X9000D01*
G01D02*
X14102D01*
G01X2707Y44707D02*
X8000Y50000D01*
G01D02*
X13293Y55293D01*
G01X2707D02*
X8000Y50000D01*
G01X-2000Y27000D02*
Y31802D01*
G01Y27000D02*
X3102D01*
G01X46441Y-121693D02*
X52748Y-128000D01*
X70134D01*
X76441Y-121693D01*
G01X46441D02*
X36441D01*
G01X27000Y-100000D02*
X28000Y-99000D01*
G01X42000Y-62000D02*
X33000Y-71000D01*
G01X27707Y-76293D02*
X33000Y-71000D01*
G01X27707Y-65707D02*
X33000Y-71000D01*
G01D02*
X38293Y-76293D01*
G01X28000Y-42000D02*
X40000D01*
G01X60000Y-44000D02*
X50000D01*
G01D02*
X30000D01*
X28000Y-42000D01*
G01X50000Y-62000D02*
X42000D01*
G01X68000Y-56091D02*
X53741D01*
X53650Y-56000D01*
X50000D01*
G01X68000Y-38091D02*
X67909Y-38000D01*
X50000D01*
G01Y-19000D02*
X55000Y-24000D01*
X60000D01*
G01X44298Y-19000D02*
X50000D01*
G01D02*
X55702D01*
G01X50000D02*
Y-13298D01*
G01X60000Y-30000D02*
X59700D01*
X56899Y-32801D01*
X54801D01*
X50000Y-28000D01*
G01X59000Y-1000D02*
X51670D01*
X40000Y10670D01*
Y17323D01*
G01Y34022D02*
Y42677D01*
G01D02*
Y51332D01*
G01X56441Y-111693D02*
X78134Y-90000D01*
X114748D01*
X136441Y-111693D01*
G01X68000Y-59909D02*
Y-72000D01*
G01Y-41909D02*
X62091D01*
X60000Y-44000D01*
G01X68000Y-46091D02*
X65909Y-44000D01*
X60000D01*
G01X68000Y-46091D02*
Y-41909D01*
G01Y-56091D02*
X80850D01*
X82598Y-54343D01*
G01Y-49343D02*
X82032Y-49909D01*
X68000D01*
G01X60000Y-50000D02*
X63650D01*
X63741Y-49909D01*
X68000D01*
G01X82598Y-44343D02*
X78343D01*
X72091Y-38091D01*
X68000D01*
G01X82598Y-34343D02*
X76343D01*
X71909Y-29909D01*
X70000D01*
G01Y-26091D02*
X66091D01*
X64000Y-24000D01*
X60000D01*
G01X82598Y-29343D02*
Y-26864D01*
X81825Y-26091D01*
X70000D01*
G01X71000Y-5702D02*
Y0D01*
G01X70000Y-29909D02*
X63741D01*
X63650Y-30000D01*
X60000D01*
G01X69000Y24000D02*
Y32000D01*
G01X65298Y0D02*
X71000D01*
G01D02*
X76702D01*
G01X75863Y24000D02*
X85128D01*
G01X69000Y42000D02*
Y54000D01*
G01X63707Y48707D02*
X69000Y54000D01*
G01D02*
X74293Y59293D01*
G01X63707D02*
X69000Y54000D01*
G01D02*
X74293Y48707D01*
G01X69000Y36898D02*
Y42000D01*
G01X64198D02*
X69000D01*
G01X111148Y-137852D02*
X116441Y-132559D01*
G01X96441Y-111693D02*
Y-98000D01*
G01X91148Y-103293D02*
X96441Y-98000D01*
G01D02*
X101734Y-103293D01*
G01X99016Y-74356D02*
Y-69874D01*
G01D02*
Y-65392D01*
G01X91142Y-74356D02*
Y-69874D01*
G01D02*
Y-65392D01*
G01X85184Y-69874D02*
X91142D01*
G01X99016D02*
X104974D01*
G01X91142Y-24986D02*
Y-20504D01*
G01D02*
Y-16022D01*
G01X85184Y-20504D02*
X91142D01*
G01X99016Y-24986D02*
Y-20504D01*
G01D02*
Y-16022D01*
G01Y-20504D02*
X104974D01*
G01X107929Y24000D02*
X126033D01*
G01X85128D02*
X94393D01*
G01X116441Y-121693D02*
Y-132559D01*
G01D02*
X121734Y-137852D01*
G01X136654Y-69244D02*
Y-79346D01*
G01D02*
X130000Y-86000D01*
G01X124707Y-91293D02*
X130000Y-86000D01*
G01X124707Y-80707D02*
X130000Y-86000D01*
G01D02*
X135293Y-91293D01*
G01X129712Y-69244D02*
X136654D01*
G01D02*
X143596D01*
G01X134370Y-59454D02*
Y-55189D01*
G01D02*
Y-50924D01*
G01X129593Y-55189D02*
X134370D01*
G01D02*
X139147D01*
G01X134370Y-39454D02*
Y-35189D01*
G01D02*
Y-30924D01*
G01X129593Y-35189D02*
X134370D01*
G01D02*
X139147D01*
G01X136654Y-27525D02*
Y-21173D01*
G01D02*
Y-14821D01*
G01X129712Y-21173D02*
X136654D01*
G01D02*
X143596D01*
G01X126033Y128D02*
Y24000D01*
G01D02*
Y47872D01*
G01Y24000D02*
X144137D01*
M02*
