M48
INCH
T01C.02992
T02C.035
T03C.05709
T04C.07874
;LEADER: 12 
;HEADER: 
;CODE  : ASCII 
;FILE  : beeSafe_1V3-1-2.drl for board K:/ORCAD/DESIGN/BEESAFE/allegro/#Taaaaam12160.tmp ... layers TOP and BOTTOM
;T01 Holesize 1. = 29.920000 Tolerance = +0.000000/-0.000000 PLATED MILS Quantity = 1
;T02 Holesize 2. = 35.000000 Tolerance = +0.000000/-0.000000 PLATED MILS Quantity = 62
;T03 Holesize 3. = 57.090000 Tolerance = +0.000000/-0.000000 PLATED MILS Quantity = 5
;T04 Holesize 4. = 78.740000 Tolerance = +0.000000/-0.000000 NON_PLATED MILS Quantity = 4
%
G90
T01
X-0077362Y-0078362
T02
X-0053559Y-0121693
R16X0010000
X0116441Y-0132559
X0116441Y-0121693
X0126441Y-0121693
X0136441Y-0121693
X0136441Y-0111693
X0130000Y-0086000
X0126441Y-0111693
R02X-0010000
X0096441Y-0098000
X0096441Y-0111693
X0086441Y-0111693
R05X-0010000
X0033000Y-0071000
X0026441Y-0111693
X0016441Y-0111693
X0015000Y-0100000
X0006441Y-0111693
R03X-0010000
X-0028346Y-0087000
X-0033559Y-0111693
X-0043559Y-0111693
X-0053559Y-0111693
X-0095000Y-0089000
X-0096000Y-0119000
X-0150000Y-0093000
X-0164000Y-0049000
X-0155909Y-0029091
X-0121000Y-0019000
X-0121000Y-0006000
X-0114000Y-0056000
X-0102000Y-0017000
X-0100000Y-0040000
X-0007000Y-0014000
X0028000Y-0042000
X0069000Y0054000
X0008000Y0050000
X-0002000Y0008000
X-0064000Y0038000
T03
X-0027000Y0057000
X-0047000Y0057000
X-0037000Y0067000
X-0047000Y0077000
X-0027000Y0077000
T04
X-0078126Y0076220
X-0078126Y-0116693
X0150220Y-0116693
X0150220Y0076220
M30
